<svg width="121" height="107" viewBox="0 0 121 107" fill="none" xmlns="http://www.w3.org/2000/svg">
<g clip-path="url(#clip0)">
<path d="M79.0616 106.347C102.224 106.347 121 87.5399 121 64.3397C121 41.1395 102.224 22.332 79.0616 22.332C55.8996 22.332 37.123 41.1395 37.123 64.3397C37.123 87.5399 55.8996 106.347 79.0616 106.347Z" fill="#F1F8FF"/>
<path d="M0.994393 53.0954C0.994393 53.0954 -0.844592 59.8886 6.1712 66.916C6.87138 67.6173 16.8023 75.4526 24.928 73.8656C26.2081 73.6156 28.608 74.3956 41.5863 55.314C47.709 46.3121 49.7877 43.2706 54.0574 38.9948C55.3752 37.6749 57.0093 36.3698 58.5191 35.264C60.9121 33.5116 62.9907 32.2634 62.9907 32.2634L47.6075 29.3524C47.6075 29.3524 35.8555 34.3495 22.9528 45.292C13.1263 53.6254 0.994393 53.0954 0.994393 53.0954Z" fill="#ACC6FC"/>
<path d="M46.981 27.8541L45.0973 25.0746C43.8063 23.1699 43.123 20.9463 43.123 18.643C43.123 14.6442 45.2495 10.8834 48.6698 8.82525L49.6913 8.21258C50.4243 7.77225 51.0618 7.16256 51.5362 6.45126L53.6308 3.3032C54.4464 2.07685 55.8139 1.34363 57.2869 1.34363C58.9608 1.34363 60.4656 2.27609 61.2145 3.77541C61.7347 4.81845 62.0072 5.98303 62.0072 7.14264V9.54552C62.0072 12.1696 60.8465 14.6282 58.8245 16.2909L53.2389 20.8875" stroke="#002B58" stroke-width="2" stroke-miterlimit="10" stroke-linecap="round" stroke-linejoin="round"/>
<path d="M62.1387 11.248L66.2224 17.4137C67.2667 18.9897 67.8187 20.8217 67.8187 22.7126C67.8187 25.236 66.7973 27.7066 65.016 29.4909L62.992 31.4464" stroke="#002B58" stroke-width="2" stroke-miterlimit="10" stroke-linecap="round" stroke-linejoin="round"/>
<path d="M66.8867 18.5873L76.5352 9.47083L84.4003 17.3489L61.6602 39.4999" stroke="#002B58" stroke-width="2" stroke-miterlimit="10" stroke-linecap="round" stroke-linejoin="round"/>
<path d="M29.0677 56.7994C27.8434 58.1243 16.9587 69.7323 11.1632 69.7323H10.9037L10.659 69.6407C10.2651 69.4972 0.994629 65.9556 0.994629 56.637V53.1681L13.1276 49.9991C18.0418 48.717 22.6716 46.2822 26.5196 42.9588L30.67 39.3734C34.0029 36.4954 37.7087 34.0745 41.684 32.1777L47.6068 29.3524C48.3617 28.9928 49.211 28.8912 50.0584 29.0934L62.99 31.4465" stroke="#002B58" stroke-width="2" stroke-miterlimit="10" stroke-linecap="round" stroke-linejoin="round"/>
<path d="M36.0446 82.6702C34.6442 83.4512 33.2508 84.0968 31.8843 84.5849" stroke="#002B58" stroke-width="2" stroke-miterlimit="10" stroke-linecap="round" stroke-linejoin="round"/>
<path d="M58.5193 56.3899C54.7786 65.8032 47.1303 75.1667 39.2124 80.6808" stroke="#002B58" stroke-width="2" stroke-miterlimit="10" stroke-linecap="round" stroke-linejoin="round"/>
<path d="M55.0524 38.0703L50.9418 41.8908C46.6969 45.8359 45.0349 48.9381 43.1104 52.5295C41.3152 55.8838 39.2773 59.6824 34.8444 64.8637C32.0218 68.1562 26.9345 73.3694 22.1207 74.0997C19.9028 74.4364 16.1065 74.3796 11.7651 69.7342" stroke="#002B58" stroke-width="2" stroke-miterlimit="10" stroke-linecap="round" stroke-linejoin="round"/>
<path d="M75.5078 10.5L78.8407 7.16162C79.7636 6.23712 81.0417 5.70813 82.3466 5.70813H82.3535C83.6724 5.70813 84.9156 6.22318 85.8515 7.16162L86.7058 8.01837C87.6427 8.95482 88.1569 10.2021 88.1569 11.5301C88.1569 12.8361 87.6288 14.1162 86.7058 15.0407L83.373 18.3791" stroke="#002B58" stroke-width="2" stroke-miterlimit="10" stroke-linecap="round" stroke-linejoin="round"/>
<path d="M53.0819 39.9013L55.1228 44.1592C55.3685 44.6673 55.8886 44.996 56.4526 44.996C56.7281 44.9412 56.9091 44.9422 57.109 44.8426L62.0083 42.3869L70.2624 38.2506L75.2393 48.2168L60.786 55.4584C59.2493 56.2284 57.5257 56.6369 55.8001 56.6389C55.7971 56.6359 55.7942 56.6359 55.7922 56.6359C51.5135 56.6359 47.7291 53.7259 45.165 48.8663" stroke="#002B58" stroke-width="2" stroke-miterlimit="10" stroke-linecap="round" stroke-linejoin="round"/>
<path d="M68.9624 38.9012L73.1765 36.7902C73.8548 36.4495 74.6196 36.2682 75.3864 36.2662H75.3924C77.2851 36.2662 78.9828 37.3173 79.8302 39.0108L80.3703 40.0917C80.7134 40.7811 80.8934 41.5492 80.8934 42.3153C80.8934 44.2071 79.8431 45.9077 78.1553 46.7555L73.9393 48.8684" stroke="#002B58" stroke-width="2" stroke-miterlimit="10" stroke-linecap="round" stroke-linejoin="round"/>
<path d="M62.761 31.4464L61.2104 42.7874" stroke="#002B58" stroke-width="2" stroke-miterlimit="10" stroke-linecap="round" stroke-linejoin="round"/>
<path d="M11.7649 69.8638C11.7649 69.8638 10.2422 71.0672 6.2251 71.8453" stroke="#002B58" stroke-width="2" stroke-miterlimit="10" stroke-linecap="round" stroke-linejoin="round"/>
</g>
<defs>
<clipPath id="clip0">
<rect width="121" height="106" fill="white" transform="translate(0 0.347412)"/>
</clipPath>
</defs>
</svg>
