<?xml version="1.0" encoding="utf-8"?>
<!-- Generator: Adobe Illustrator 22.0.1, SVG Export Plug-In . SVG Version: 6.00 Build 0)  -->
<svg version="1.1" id="Layer_1" xmlns="http://www.w3.org/2000/svg" xmlns:xlink="http://www.w3.org/1999/xlink" x="0px" y="0px"
	 viewBox="0 0 533 446" enable-background="new 0 0 533 446" xml:space="preserve">
<g>
	<rect x="0.431" fill="#FFFFFF" width="532.138" height="446"/>
	<rect y="78.604" fill="none" width="533" height="267.895"/>
	<path fill="#F1F8FF" d="M27.396,77.855h63.092c3.794,0,6.869,3.083,6.869,6.885v32.993c0,3.803-3.075,6.885-6.869,6.885h-3.243
		v12.309l-16.791-12.309H27.396c-3.794,0-6.869-3.083-6.869-6.885V84.741C20.527,80.938,23.602,77.855,27.396,77.855z"/>
	<path fill="#F1F8FF" d="M155.79,26.386h-43.954c-2.643,0-4.786,2.148-4.786,4.797v22.985c0,2.649,2.143,4.797,4.786,4.797h2.26
		v8.576l11.698-8.576h29.997c2.643,0,4.786-2.148,4.786-4.797V31.183C160.576,28.534,158.433,26.386,155.79,26.386z"/>
	<g>
		<defs>
			<rect id="SVGID_1_" x="0.765" width="532.138" height="446"/>
		</defs>
		<clipPath id="SVGID_2_">
			<use xlink:href="#SVGID_1_"  overflow="visible"/>
		</clipPath>
		<g clip-path="url(#SVGID_2_)">
			<path opacity="0.5" fill="#ACC6FC" d="M556.843,261.509c0.046-21.196,0.076-42.391,0.106-63.587
				c0.055-38.627,0.11-77.267-1.299-115.864c-0.842-23.076,15.095-46.624,6.937-67.979c-1.208-3.162-0.954-6.334-3.211-8.738
				c-2.297-2.446-5.605-24.144-8.623-25.383c-18.041-7.408-54.282,4.039-73.583,3.524c-39.902-1.063-82.068,2.908-121.969,1.845
				c-24.722-0.659-51.448,2.458-71.45,18.128c-16.405,12.853-25.102,33.861-36.631,51.844
				c-7.129,11.121-20.159,29.978-32.878,32.971c-6.813,1.604-13.881,0.878-20.855,0.885c-15.373,0.013-30.733,3.679-44.674,10.661
				c-17.045,8.536-32.83,23.724-35.902,43.704c-2.198,14.3,2.348,29.314-1.197,43.297c-4.054,15.99-17.62,26.821-30.907,35.175
				c-13.287,8.353-27.781,16.099-36.344,29.87c-5.149,8.281-8.293,19.604-9.621,29.427c-1.558,11.524,1.487,22.622-3.336,33.779
				c-3.28,7.589-9.136,13.498-15.145,18.805c-9.125,8.06-19.015,15.298-26.7,24.946c-7.685,9.647-13.036,22.454-10.898,34.957
				c1.683,9.842,7.949,18.406,15.926,23.532c9.705,6.236,22.534,7.748,33.221,11.681c14.401,5.3,30.81,5.933,45.874,6.595
				c60.778,2.671,121.596-4.238,182.351-0.224c28.298,1.87,55.626,4,83.474,9.751c30.767,6.354,61.388,13.497,92,20.658
				c20.46,4.786,41.279,9.79,62.133,7.793c20.854-1.996,42.161-12.209,52.946-31.545c9.079-16.276,9.524-36.291,9.675-55.28
				C556.601,344.998,556.752,303.254,556.843,261.509z"/>
			<g>
				<g>
					<g>
						
							<rect x="469.068" y="229.289" transform="matrix(-1 -1.224647e-16 1.224647e-16 -1 970.9365 609.1694)" fill="#ACC6FC" width="32.8" height="150.592"/>
						<rect x="419.572" y="275.506" fill="#ACC6FC" width="49.496" height="104.375"/>
						<rect x="501.868" y="306.578" fill="#ACC6FC" width="51.171" height="73.302"/>
						
							<rect x="469.068" y="221.928" transform="matrix(-1 -1.224647e-16 1.224647e-16 -1 964.7728 451.217)" fill="#ACC6FC" width="26.636" height="7.361"/>
						
							<rect x="469.068" y="214.567" transform="matrix(-1 -1.224647e-16 1.224647e-16 -1 959.9297 436.4952)" fill="#ACC6FC" width="21.793" height="7.361"/>
						
							<rect x="469.068" y="207.206" transform="matrix(-1 -1.224647e-16 1.224647e-16 -1 955.307 421.7735)" fill="#ACC6FC" width="17.17" height="7.361"/>
					</g>
					<g>
						
							<rect x="339.585" y="229.289" transform="matrix(-1 -1.224647e-16 1.224647e-16 -1 711.9694 609.1694)" fill="#ACC6FC" width="32.8" height="150.592"/>
						
							<rect x="429.308" y="180.533" transform="matrix(-1 -1.224647e-16 1.224647e-16 -1 891.416 560.4138)" fill="#ACC6FC" width="32.8" height="199.347"/>
						
							<rect x="273.985" y="321.607" transform="matrix(-1 -1.224647e-16 1.224647e-16 -1 613.5699 701.4872)" fill="#ACC6FC" width="65.6" height="58.274"/>
						
							<rect x="355.985" y="157.018" transform="matrix(-1 -1.224647e-16 1.224647e-16 -1 777.8652 536.8987)" fill="#ACC6FC" width="65.896" height="222.862"/>
						
							<rect x="339.585" y="221.928" transform="matrix(-1 -1.224647e-16 1.224647e-16 -1 705.8057 451.217)" fill="#ACC6FC" width="26.636" height="7.361"/>
						
							<rect x="339.585" y="214.567" transform="matrix(-1 -1.224647e-16 1.224647e-16 -1 700.9627 436.4952)" fill="#ACC6FC" width="21.793" height="7.361"/>
						
							<rect x="339.585" y="207.206" transform="matrix(-1 -1.224647e-16 1.224647e-16 -1 696.34 421.7735)" fill="#ACC6FC" width="17.17" height="7.361"/>
					</g>
				</g>
				<g>
					<g>
						
							<rect x="276.741" y="229.289" transform="matrix(-1 -1.224647e-16 1.224647e-16 -1 586.2827 609.1694)" fill="#ACC6FC" width="32.8" height="150.592"/>
						<rect x="309.541" y="254.745" fill="#ACC6FC" width="32.8" height="125.135"/>
						<rect x="227.245" y="195.518" fill="#ACC6FC" width="49.496" height="184.363"/>
						
							<rect x="276.741" y="221.928" transform="matrix(-1 -1.224647e-16 1.224647e-16 -1 580.119 451.217)" fill="#ACC6FC" width="26.636" height="7.361"/>
						
							<rect x="276.741" y="214.567" transform="matrix(-1 -1.224647e-16 1.224647e-16 -1 575.276 436.4952)" fill="#ACC6FC" width="21.793" height="7.361"/>
						
							<rect x="276.741" y="207.206" transform="matrix(-1 -1.224647e-16 1.224647e-16 -1 570.6532 421.7735)" fill="#ACC6FC" width="17.17" height="7.361"/>
					</g>
					<g>
						
							<rect x="147.258" y="229.289" transform="matrix(-1 -1.224647e-16 1.224647e-16 -1 327.3156 609.1694)" fill="#ACC6FC" width="32.8" height="150.592"/>
						
							<rect x="114.458" y="254.745" transform="matrix(-1 -1.224647e-16 1.224647e-16 -1 261.716 634.6259)" fill="#ACC6FC" width="32.8" height="125.135"/>
						
							<rect x="187.78" y="233.862" transform="matrix(-1 -1.224647e-16 1.224647e-16 -1 408.3589 613.7428)" fill="#ACC6FC" width="32.8" height="146.018"/>
						
							<rect x="81.658" y="307.187" transform="matrix(-1 -1.224647e-16 1.224647e-16 -1 196.1163 687.0671)" fill="#ACC6FC" width="32.8" height="72.694"/>
						
							<rect x="48.858" y="337.092" transform="matrix(-1 -1.224647e-16 1.224647e-16 -1 130.5166 746.8782)" fill="#ACC6FC" width="32.8" height="72.694"/>
						
							<rect x="163.658" y="269.927" transform="matrix(-1 -1.224647e-16 1.224647e-16 -1 393.2114 649.8077)" fill="#ACC6FC" width="65.896" height="109.953"/>
						
							<rect x="147.258" y="221.928" transform="matrix(-1 -1.224647e-16 1.224647e-16 -1 321.1519 451.217)" fill="#ACC6FC" width="26.636" height="7.361"/>
						
							<rect x="111.816" y="347.983" transform="matrix(-1 -1.224647e-16 1.224647e-16 -1 250.2689 703.3275)" fill="#ACC6FC" width="26.636" height="7.361"/>
						
							<rect x="147.258" y="214.567" transform="matrix(-1 -1.224647e-16 1.224647e-16 -1 316.309 436.4952)" fill="#ACC6FC" width="21.793" height="7.361"/>
						
							<rect x="147.258" y="207.206" transform="matrix(-1 -1.224647e-16 1.224647e-16 -1 311.6862 421.7735)" fill="#ACC6FC" width="17.17" height="7.361"/>
					</g>
					
						<rect x="288.867" y="268.854" transform="matrix(-1 -1.224647e-16 1.224647e-16 -1 620.855 545.0684)" fill="#ACC6FC" width="43.121" height="7.361"/>
					
						<rect x="288.867" y="295.23" transform="matrix(-1 -1.224647e-16 1.224647e-16 -1 620.855 597.8214)" fill="#ACC6FC" width="43.121" height="7.361"/>
					
						<rect x="123.596" y="321.607" transform="matrix(-1 -1.224647e-16 1.224647e-16 -1 290.3127 650.5744)" fill="#ACC6FC" width="43.121" height="7.361"/>
					
						<rect x="123.596" y="347.983" transform="matrix(-1 -1.224647e-16 1.224647e-16 -1 290.3127 703.3275)" fill="#ACC6FC" width="43.121" height="7.361"/>
				</g>
			</g>
			<g>
				<g>
					<g>
						<path fill="#FFFFFF" d="M431.387,335.392c1.08-2.239,0.887-4.592,0.206-6.726c-0.655-2.182-1.824-4.061-3.089-6.115
							c-1.279-2.025-2.584-4.233-3.384-6.892c-0.811-2.688-0.579-5.702,0.166-8.251c1.61-5.2,4.908-9.032,7.18-12.952
							c1.138-1.984,2.07-3.998,2.438-6.228c0.414-2.208,0.272-4.561-0.81-6.778c1.876,1.646,2.786,4.313,2.908,6.896
							c0.117,2.61-0.54,5.258-1.538,7.586c-1.972,4.722-4.928,8.555-6.078,12.7c-0.652,2.052-0.813,4.04-0.35,6.029
							c0.387,2.04,1.451,4.099,2.408,6.331c1.016,2.18,1.988,4.7,2.203,7.291C433.867,330.834,433.284,333.719,431.387,335.392z"/>
					</g>
				</g>
				<g>
					<g>
						<path fill="#22CAFF" d="M435.62,380.076h-6.452c-6.263,0-11.34-5.077-11.34-11.34V338.25h29.131v30.486
							C446.959,374.999,441.882,380.076,435.62,380.076z"/>
						<path fill="#22CAFF" d="M448.994,347.71c-6.986,0-12.649,5.76-12.649,12.864c0,7.105,5.663,12.865,12.649,12.865
							c6.985,0,12.648-5.76,12.648-12.865C461.642,353.47,455.979,347.71,448.994,347.71z M448.994,368.851
							c-4.495,0-8.138-3.706-8.138-8.277s3.643-8.277,8.138-8.277c4.494,0,8.138,3.706,8.138,8.277S453.488,368.851,448.994,368.851
							z"/>
						<path fill="#FFFFFF" d="M422.184,364.2L422.184,364.2c-0.866,0-1.575-0.71-1.575-1.578v-20.355
							c0-0.868,0.709-1.579,1.575-1.579l0,0c0.866,0,1.575,0.71,1.575,1.579v20.355C423.759,363.49,423.05,364.2,422.184,364.2z"/>
						<path fill="#2863FD" d="M440.232,338.25v34.43c0,4.084-3.303,7.395-7.378,7.395h6.728c4.075,0,7.378-3.311,7.378-7.395v-34.43
							H440.232z"/>
					</g>
				</g>
			</g>
			<path fill="#2863FD" d="M503.48,136.824h-98.009c-5.893,0-10.671,4.789-10.671,10.696v51.252c0,5.907,4.778,10.696,10.671,10.696
				h5.038v19.122l26.083-19.122h66.887c5.893,0,10.671-4.789,10.671-10.696V147.52C514.151,141.613,509.374,136.824,503.48,136.824z
				"/>
			<path fill="#FFFFFF" d="M469.601,176.417h-54.16c-1.354,0-2.461-1.108-2.461-2.461v-1.415c0-1.354,1.108-2.461,2.461-2.461h54.16
				c1.354,0,2.461,1.108,2.461,2.461v1.415C472.062,175.31,470.955,176.417,469.601,176.417z"/>
			<path fill="#FFFFFF" d="M493.511,176.417h-14.442c-1.354,0-2.461-1.108-2.461-2.461v-1.415c0-1.354,1.108-2.461,2.461-2.461
				h14.442c1.354,0,2.461,1.108,2.461,2.461v1.415C495.972,175.31,494.864,176.417,493.511,176.417z"/>
			<path fill="#FFFFFF" d="M439.351,155.686h54.16c1.354,0,2.461,1.108,2.461,2.461v1.415c0,1.354-1.108,2.461-2.461,2.461h-54.16
				c-1.354,0-2.461-1.108-2.461-2.461v-1.415C436.889,156.794,437.997,155.686,439.351,155.686z"/>
			<path fill="#FFFFFF" d="M415.441,155.686h14.442c1.354,0,2.461,1.108,2.461,2.461v1.415c0,1.354-1.108,2.461-2.461,2.461h-14.442
				c-1.354,0-2.461-1.108-2.461-2.461v-1.415C412.98,156.794,414.087,155.686,415.441,155.686z"/>
			<path fill="#FFFFFF" d="M452.014,189.575h-36.573c-1.354,0-2.461-1.108-2.461-2.461v-1.415c0-1.354,1.108-2.461,2.461-2.461
				h36.573c1.354,0,2.461,1.108,2.461,2.461v1.415C454.476,188.468,453.368,189.575,452.014,189.575z"/>
			<path fill="#002B58" d="M368.753,323.27c-11.455,4.063-25.27,3.647-35.692-3.054c-10.245-6.587-19.579-11.344-32.185-11.114
				c-11.264,0.206-20.578,6.309-31.488,7.608c-8.652,1.03-17.442-2.751-23.713-8.815c-6.121-5.919-10.187-14.944-7.525-23.041
				c1.394-4.24,4.439-7.738,6.178-11.847c4.009-9.479-6.547-15.197-3.922-25.174c2.232-8.486,11.522-14.538,11.383-23.313
				c-0.101-6.423-5.062-11.401-6.809-17.344c-1.762-5.995-1.373-12.711,1.736-18.188c2.284-4.024,5.954-7.319,10.207-9.135
				c3.819-1.631,8.086-1.662,11.04-5.007c5.263-5.962,7.194-12.423,14.416-16.782c6.114-3.69,14.188-3.925,21.202-3.28
				c15.586,1.432,30.712,9.678,39.491,22.811c3.111,4.654,5.356,9.417,5.435,14.948c0.085,6.047,0.083,12.13,3.779,17.271
				c3.103,4.316,8.085,6.842,13.024,8.789c4.94,1.947,10.116,3.524,14.453,6.592c4.336,3.069,7.78,8.075,7.274,13.371
				c-0.423,4.433-3.485,8.285-3.892,12.719c-0.741,8.063,7.008,13.919,11.786,20.449c6.689,9.142,7.798,22.069,2.763,32.22
				c-5.796,11.688-16.327,14.324-27.362,18.723C369.811,322.883,369.285,323.081,368.753,323.27z"/>
			<g>
				<path fill="#ACC6FC" d="M285.47,172.519c3.788-2.218,8.191-3.235,12.564-3.41c4.39-0.168,8.789,0.398,13.051,1.461
					c8.548,2.157,16.332,7.256,21.762,14.27c2.684,3.527,4.76,7.539,5.992,11.82c1.238,4.293,1.491,8.783,1.44,13.175
					c-0.044,4.402-0.356,8.779-0.211,13.11c0.091,2.15,0.356,4.296,1.009,6.302c0.642,1.998,1.755,3.843,3.402,5.046
					c1.625,1.236,3.713,1.759,5.823,2.012c2.117,0.251,4.327,0.264,6.533,0.56c4.365,0.589,8.804,1.63,12.608,4.139
					c1.869,1.252,3.551,2.995,4.368,5.197c0.847,2.202,0.677,4.606,0.11,6.8c-0.66,2.219-1.914,4.08-2.788,6.02
					c-0.875,1.942-1.436,4.033-1.626,6.16c-0.404,4.283,0.693,8.577,2.213,12.64c1.493,4.096,3.285,8.133,4.331,12.435
					c0.512,2.147,0.825,4.358,0.789,6.574c-0.027,2.215-0.429,4.421-1.149,6.504c-1.436,4.173-4.144,7.873-7.646,10.497
					c3.44-2.705,6.036-6.447,7.356-10.594c1.383-4.152,1.199-8.656,0.057-12.832c-1.094-4.212-2.916-8.201-4.478-12.307
					c-1.585-4.079-2.794-8.495-2.431-12.999c0.171-2.238,0.732-4.447,1.629-6.508c0.912-2.052,2.13-3.885,2.706-5.894
					c0.507-2.026,0.642-4.183-0.109-6.101c-0.722-1.922-2.218-3.485-3.964-4.645c-3.545-2.328-7.874-3.352-12.12-3.898
					c-2.13-0.278-4.305-0.279-6.532-0.531c-2.198-0.256-4.528-0.796-6.424-2.224c-1.903-1.404-3.137-3.515-3.817-5.669
					c-0.695-2.17-0.955-4.417-1.04-6.638c-0.128-4.433,0.207-8.81,0.267-13.169c0.069-4.35-0.164-8.714-1.343-12.868
					c-1.189-4.144-3.15-8.058-5.716-11.534c-5.199-6.907-12.771-12.016-21.153-14.261c-4.185-1.149-8.535-1.812-12.888-1.746
					C293.705,169.486,289.31,170.39,285.47,172.519z"/>
			</g>
			<path d="M340.608,269.7c0.406,9.908-1.885,17.35-10.925,22.251c-7.2,3.903-15.822,5.183-23.767,5.38
				c-13.326,0.329-28.175-3.116-38.144-12.499c-1.809-1.703-3.545-3.79-3.676-6.274c-0.119-2.258,1.12-4.386,1.23-6.644
				c0.184-3.809-2.771-6.965-4.091-10.541c-1.744-4.724-0.559-9.997,1.008-14.783c1.567-4.786,3.529-9.617,3.293-14.649
				c-0.305-6.526-4.218-12.225-7.35-17.954c-3.132-5.73-5.598-12.7-2.921-18.658c1.764-3.926,5.971-6.944,10.269-7.422
				c4.541-0.505,8.622,4.696,11.531,7.562c3.914,3.856,8.275,7.256,12.967,10.109c6.489,3.947,13.613,6.858,19.716,11.381
				c3.693,2.737,7.655,6.494,9.418,10.853c1.987,4.913-1.492,9.668,2.715,14.187c2.714,2.915,6.882,3.907,10.164,6.16
				C339.07,252.984,340.287,261.878,340.608,269.7z"/>
			<path fill="#0741B0" d="M267.014,325.143c9.357-14.453,15.179-32.191,7.049-48.509c-0.824-1.654-1.815-3.459-3.565-4.042
				c-3.764-1.254-8.87,0.094-12.143,2.019c-11.353,6.677-18.3,19.241-24.678,30.42c-6.626,11.614-12.381,23.703-19.04,35.299
				c-2.697,4.696-5.421,9.456-6.867,14.677c-1.267,4.574-1.406,9.81,0.323,14.286c7.475,19.348,28.029-4.352,34.285-11.512
				C251.305,347.564,259.641,336.536,267.014,325.143z"/>
			<g>
				<defs>
					<path id="SVGID_3_" d="M351.678,308.973c2.689-11.415,4.084-23.094-2.011-30.87c-2.753-3.512-7.657-5.957-11.67-7.696
						c-7.828-3.391-15.831-7.95-24.21-9.428c-8.835-1.558-18.66-2.519-27.465-0.29c-5.592,1.416-10.825,4.036-15.826,6.862
						c-4.339,2.452-9.663,4.564-11.77,9.128c-5.105,11.06-9.636,22.596-13.394,34.183c-3.144,9.694-6.595,19.856-1.641,29.681
						c1.605,3.184,3.937,5.909,5.773,8.95c2.045,3.388,2.808,6.571,3.076,10.479c0.612,8.917,0.374,17.862,0.348,26.792
						c-0.007,2.574,0.026,5.249,1.151,7.562c2.216,4.562,8.239,4.626,12.578,4.618c14.3-0.025,28.6-0.05,42.901-0.074
						c5.95-0.01,10.496,0.72,16.082,1.871c4.701,0.968,8.736-1.409,10.992-5.794c2.135-4.15,2.297-8.997,2.526-13.661
						c0.89-18.146,3.458-36.209,7.661-53.882C347.97,322.399,350.057,315.854,351.678,308.973z"/>
				</defs>
				<use xlink:href="#SVGID_3_"  overflow="visible" fill="#2863FD"/>
				<clipPath id="SVGID_4_">
					<use xlink:href="#SVGID_3_"  overflow="visible"/>
				</clipPath>
				<path clip-path="url(#SVGID_4_)" fill="#0741B0" d="M318.557,275.767c3.366-5.676,4.131-12.768-0.279-18.237
					c-2.016-2.501-5.582-2.781-8.632-2.838c-6.002-0.112-12.018,0.527-17.863,1.897c-5.571,1.306-11.252,3.519-13.665,9.157
					c-1.793,4.189-1.167,9.036,1.195,12.868c2.145,3.481,5.704,6.057,9.675,7.005c6.412,1.53,13.917,1.324,20.035-1.25
					C312.856,282.758,316.294,279.583,318.557,275.767z"/>
				<path clip-path="url(#SVGID_4_)" fill="#0741B0" d="M356.743,361.309c-0.044-8.753-0.088-17.506-0.133-26.259
					c-0.015-3.047,1.958-21.596-2.771-21.385c-0.51,0.023-0.978,0.286-1.393,0.584c-2.353,1.687-3.562,4.512-4.661,7.194
					c-3.447,8.408-6.341,21.868-13.516,27.755c-7.293,5.983-18.508,8.506-27.57,9.942c-10.584,1.677-21.341,1.802-32.037,2.454
					c-6.918,0.422-14.551,1.42-19.095,6.665c-3.245,3.746-4.898,9.361-6.631,13.937c-1.515,3.999-2.721,8.75,0.353,12.373
					c1.311,1.546,3.132,2.56,4.963,3.425c6.675,3.154,13.97,4.744,21.248,5.965c20.368,3.417,41.129,4.127,61.757,3.142
					c4.41-0.211,9.193-0.651,12.446-3.644c2.42-2.227,3.561-5.504,4.373-8.695C356.84,383.891,356.8,372.528,356.743,361.309z"/>
			</g>
			<path fill="#22CAFF" d="M259.213,211.822c-7.803,8.047-0.725,27.711,11.719,24.865c13.371-3.058,11.36-23.945-0.731-27.374
				C265.485,207.976,261.724,209.232,259.213,211.822z"/>
			<path fill="none" stroke="#0B2D4E" stroke-width="1.166" stroke-miterlimit="10" d="M365.729,321.948
				c7.821,1,16.059,0.312,23.045-3.353c8.894-4.665,13.343-13.219,13.527-23.06c0.134-7.129-1.243-14.56-5.536-20.245
				c-4.668-6.181-12.492-9.982-15.395-17.167c-1.88-4.653-1.429-10.989,2.288-14.59c2.367-2.292,4.218-4.877,3.914-8.313
				c-0.447-5.055-4.136-9.912-8.257-12.642c-6.043-4.003-13.56-5.468-20.631-6.368c-4.788-0.61-9.561-1.959-11.042-7.129
				c-0.799-2.789-0.641-5.732-0.791-8.598c-0.318-6.112-0.765-12.226-1.676-18.281c-1.05-6.982-5.573-13.734-10.617-18.544
				c-0.724-0.691-1.476-1.352-2.253-1.983c-13.004-10.559-37.076-14.3-51.42-4.514c-4.891,3.337-8.317,8.443-9.407,14.281
				c-0.728,3.901-1.783,4.741-5.586,5.924c-6.908,2.149-14.748,3.674-20.235,8.753c-4.292,3.973-6.265,9.989-5.694,15.762
				c0.729,7.369,5.869,10.895,9.55,16.735c3.757,5.962,0.803,13.464-3.561,18.384c-3.361,3.789-8.13,6.557-10.028,11.256
				c-1.747,4.323-0.59,9.321,1.52,13.479c0.855,1.684,1.861,3.293,2.616,5.025c2.299,5.27,2.062,11.585-0.627,16.667"/>
			
				<rect x="-211.288" y="380.004" transform="matrix(-1 -1.224647e-16 1.224647e-16 -1 362.4434 848.2398)" fill="#002B58" width="785.019" height="88.233"/>
			<path fill="#2863FD" d="M387.899,333.351c2.392,4.325,4.769,8.657,7.103,13.016c4.737,8.848,13.534,28.506-0.548,33.363
				c-7.095,2.447-11.153,0.054-15.844-5.127c-17.742-19.601-32.872-41.571-44.86-65.146c-4.462-8.774-16.311-31.64-1.919-36.864
				c4.544-1.65,9.782-1.266,14.038,1.029c1.946,1.049,3.672,2.463,5.321,3.937c10.386,9.284,17.782,21.263,24.361,33.412
				C379.618,318.479,383.781,325.905,387.899,333.351z"/>
			<path fill="#2863FD" d="M318.633,364.242c1.211-0.207,2.424-0.408,3.64-0.599c5.909-0.929,11.793-2.032,17.645-3.308
				c11.588-2.526,23.245-4.695,35.042-5.815c1.25-0.119,2.502-0.225,3.754-0.321c5.289-0.4,10.831-0.531,15.672,2.004
				c4.841,2.534,8.692,8.532,7.509,14.313c-0.831,4.062-3.929,7.119-7.372,8.66c-3.443,1.541-7.233,1.809-10.951,2.06
				c-12.045,0.813-24.089,1.625-36.134,2.438c-5.964,0.399-11.926,0.812-17.889,1.227c-5.694,0.397-11.475,1.203-17.185,1.197
				c-2.415-0.003-5.112-0.456-7.141-2.072c-2.821-2.246-4.519-7.027-4.793-10.762c-0.142-1.94,0.236-4.296,1.718-5.496
				c0.794-0.643,1.803-0.839,2.774-1.018C309.498,365.906,314.053,365.026,318.633,364.242z"/>
			<g>
				<rect x="212.928" y="368.593" fill="#DDDDDD" width="58.427" height="11.466"/>
				<g>
					<path fill="#DDDDDD" d="M222.954,369.705l-14.745-75.247c-0.39-1.988-2.128-3.421-4.149-3.421h-98.026
						c-1.419,0-2.635,0.704-3.397,1.747l-0.013-0.013l-4.526,5.364l4.016-0.883l14.518,74.085c0.389,1.988,2.128,3.421,4.149,3.421
						h98.026C221.468,374.76,223.468,372.324,222.954,369.705z"/>
					<path fill="#002B58" d="M116.298,380.059h98.026c2.662,0,4.662-2.436,4.149-5.055l-14.746-75.247
						c-0.39-1.988-2.128-3.421-4.149-3.421h-98.026c-2.662,0-4.662,2.436-4.149,5.055l14.746,75.247
						C112.539,378.625,114.277,380.059,116.298,380.059z"/>
					<path fill="#DDDDDD" d="M147.132,336.333c0.904,5.076,5.742,9.19,10.806,9.19c5.064,0,8.377-4.115,7.401-9.19
						c-0.977-5.076-5.815-9.19-10.806-9.19S146.228,331.258,147.132,336.333z"/>
				</g>
				<path fill="#3F91AC" d="M97.323,299.837"/>
			</g>
			<path fill="#F8A17A" d="M305.12,382.639c-2.913,0.603-5.189,3.166-8.088,4.025c-2.069,0.613-4.283,0.285-6.27-0.462
				c-1.828-0.687-3.687-1.055-5.563-1.657c-1.462-0.469-3.437-1.458-5.008-1.13c-4.117,0.859-8.223,3.796-11.955,5.703
				c-0.839,0.429-1.758,0.87-2.684,0.694c-0.925-0.176-1.697-1.3-1.171-2.083c-1.074,1.005-2.495,3.016-4.227,2.236
				c-0.708-0.319-1.136-1.26-0.743-1.931c-0.595,0.655-1.22,1.33-2.042,1.655c-0.822,0.325-1.9,0.184-2.384-0.557
				c-0.228-0.349-0.296-0.778-0.317-1.194c-0.071-1.432,0.36-2.847,0.956-4.151c2.94-6.43,9.587-11.2,15.242-15.031
				c1-0.678,2.02-1.365,3.175-1.718c1.033-0.316,2.129-0.351,3.21-0.356c7.014-0.032,14.032,1.105,20.679,3.349
				c1.438,0.486,3.022,0.072,4.456-0.197c1.062-0.199,2.171-0.397,3.208-0.093c1.16,0.34,2.059,1.261,2.766,2.244
				c1.3,1.807,2.293,4.2,2.138,6.47c-0.118,1.724-0.248,3.584-2.272,3.946c-0.82,0.147-1.665,0.056-2.493,0.143
				C305.525,382.565,305.321,382.597,305.12,382.639z"/>
			<path fill="#F8A17A" d="M306.364,278.661c4.285-1.378,7.814-4.048,9.137-8.292c1.2-3.852-0.692-8.185-1.029-12.072
				c-0.323-3.725-0.365-7.471-0.121-11.201c0.226-3.448,0.555-7.041,0.025-10.478c-0.301-1.964-1.376-1.628-3.359-2.409
				c-1.981-0.78-4.206-0.788-6.361-0.783c-4.411,0.011-15.91-0.31-18.636,3.57c-1.251,1.781-1.35,4.023-1.409,6.143
				c-0.072,2.56-0.524,5.876-0.943,9.448c-0.186,1.59-0.071,3.175-0.314,4.754c-0.272,1.769-0.942,3.463-1.529,5.158
				c-2.219,6.406-0.141,12.499,6.77,15.432C293.554,280.035,300.634,280.503,306.364,278.661z"/>
			<path fill="#E5785C" d="M314.354,236.618c-0.3-1.964-1.376-1.628-3.359-2.409c-1.981-0.78-4.206-0.788-6.361-0.783
				c-4.411,0.011-15.91-0.31-18.636,3.57c-1.251,1.781-1.35,4.023-1.409,6.143c-0.072,2.56-0.524,5.876-0.943,9.448
				c-0.186,1.59-0.071,3.175-0.314,4.754c-0.207,1.347-0.645,2.65-1.101,3.944c4.276,1.592,9.105,1.947,13.566,0.846
				c8.036-1.983,14.121-6.996,18.462-13.514c0.023-0.507,0.037-1.014,0.07-1.52C314.554,243.647,314.883,240.055,314.354,236.618z"
				/>
			<path fill="#F8A17A" d="M320.758,211.376c-0.035-5.904-0.848-11.505-2.363-16.155c-6.539-20.066-31.511-25.023-46.549-10.619
				c-16.769,16.063-10.352,54.467,7.311,67.958c4.723,3.607,11.141,4.874,16.876,3.333
				C313.388,251.226,320.868,229.82,320.758,211.376z"/>
			<path fill="#F8A17A" d="M317.476,211.872c7.683-4.211,10.048,6.452,8.726,11.758c-0.546,2.191-1.409,4.329-2.766,6.132
				c-1.827,2.428-7.056,6.457-10.067,3.8c-1.367-1.206-1.507-3.254-1.549-5.078C311.706,223.592,312.268,214.726,317.476,211.872z"
				/>
			<g>
				<path fill="#22CAFF" d="M292.452,246.994c-1.883,0-3.78-0.139-5.678-0.42l0.34-2.31c6.896,1.019,13.772,0.056,19.886-2.784
					c1.661-0.771,3.068-1.582,4.303-2.478c2.245-1.63,4.173-3.76,5.573-6.159l2.01,1.179c-1.562,2.676-3.712,5.052-6.217,6.87
					c-1.358,0.985-2.892,1.87-4.69,2.706C303.138,245.847,297.854,246.994,292.452,246.994z"/>
			</g>
			<g>
				<path fill="#22CAFF" d="M280.038,242.424c2.809-2.416,9.057-2.209,11.117,0.299c1.527,1.86,1.06,4.22-0.62,5.792
					c-1.989,1.86-4.448,1.752-6.928,1.191C280.502,249.005,276.653,245.337,280.038,242.424z"/>
			</g>
			<path fill="#E5785C" d="M320.797,196.047c-6.884-21.126-33.176-26.345-49.008-11.18c-3.497,3.35-6.022,7.632-7.702,12.441
				c0.353,0.547,0.748,1.096,1.221,1.646c2.172,2.522,5.17,4.17,8.187,5.568c8.813,4.084,18.313,6.481,27.856,8.273
				c0.703,0.132,1.411,0.262,2.117,0.402c2.627,0.519,5.235,1.169,7.529,2.524c6.486,3.832,3.697,12.261,8.448,15.954
				c0.43,0.334,0.864,0.55,1.299,0.703c1.755-6.292,2.578-12.972,2.541-19.322C323.248,206.84,322.393,200.944,320.797,196.047z"/>
			<path fill="#0B2D4E" d="M304.149,210.784c2.511,0.933,4.982,1.991,7.031,3.695c5.793,4.82,1.698,12.695,5.802,17.101
				c3.635,3.904,9.156-1.255,10.602-4.86c2.664-6.642,2.508-14.035,2.311-21.191c-0.11-3.991-0.228-8.039-1.395-11.856
				c-1.273-4.164-3.753-7.879-6.707-11.074c-8.527-9.223-21.395-14.017-33.854-13.23c-9.743,0.615-26.834,8.822-19.196,21.254
				c1.743,2.837,4.441,4.943,7.197,6.805c8.051,5.441,17.047,9.325,26.183,12.62C302.797,210.291,303.475,210.533,304.149,210.784z"
				/>
			<path fill="#22CAFF" d="M320.703,208.838c-10.845,2.788-15.036,23.265-2.937,27.342c13,4.381,22.151-14.493,13.618-23.739
				C328.056,208.835,324.194,207.941,320.703,208.838z"/>
			<path fill="#2863FD" d="M324.258,211.467c-7.486,1.206-12.098,17.148-4.383,21.535c8.29,4.715,16.07-9.482,11.193-17.659
				C329.167,212.154,326.668,211.078,324.258,211.467z"/>
			<g>
				<path fill="#22CAFF" d="M325.769,210.271l-2.892-0.335c1.962-16.995,1.126-38.711-13.997-45.646
					c-7.162-3.284-27.673-6.929-36.699,5.281c-1.086,1.222-1.813,2.247-1.813,2.247c5.598-17.314,31.993-13.728,39.723-10.182
					C326.805,169.301,327.842,192.315,325.769,210.271z"/>
			</g>
		</g>
	</g>
</g>
</svg>
