<?xml version="1.0" encoding="utf-8"?>
<!-- Generator: Adobe Illustrator 22.0.1, SVG Export Plug-In . SVG Version: 6.00 Build 0)  -->
<svg version="1.1" id="Capa_1" xmlns="http://www.w3.org/2000/svg" xmlns:xlink="http://www.w3.org/1999/xlink" x="0px" y="0px"
	 viewBox="0 0 8.649 15.999" enable-background="new 0 0 8.649 15.999" xml:space="preserve">
<g>
	<path fill="#FFFFFF" d="M8.324,0.003L6.249,0C3.918,0,2.412,1.546,2.412,3.938v1.816H0.326C0.146,5.754,0,5.9,0,6.08v2.63
		c0,0.18,0.146,0.326,0.326,0.326h2.086v6.637c0,0.18,0.146,0.326,0.326,0.326H5.46c0.18,0,0.326-0.146,0.326-0.326V9.036h2.439
		c0.18,0,0.326-0.146,0.326-0.326l0.001-2.63c0-0.087-0.034-0.169-0.096-0.231C8.395,5.788,8.312,5.753,8.225,5.753h-2.44V4.214
		c0-0.74,0.176-1.115,1.14-1.115h1.398c0.18,0,0.326-0.146,0.326-0.326V0.33C8.65,0.149,8.504,0.003,8.324,0.003z"/>
</g>
</svg>
