<?xml version="1.0" encoding="utf-8"?>
<!-- Generator: Adobe Illustrator 22.0.1, SVG Export Plug-In . SVG Version: 6.00 Build 0)  -->
<svg version="1.1" id="Layer_1" xmlns="http://www.w3.org/2000/svg" xmlns:xlink="http://www.w3.org/1999/xlink" x="0px" y="0px"
	 viewBox="0 0 141 62" enable-background="new 0 0 141 62" xml:space="preserve">
<g>
	<path fill="#FFFFFF" d="M19.5,4.306c0.426-0.505,0.699-1.033,0.699-1.592c0-0.937-0.764-1.53-1.699-1.53
		c-0.87,0-1.593,0.571-1.729,1.53l-1.273-0.312c0.243-1.573,1.509-2.564,2.995-2.564c1.669,0,2.995,1.153,2.995,2.864
		c0,0.937-0.426,1.789-1.042,2.51c-1.231,1.453-1.262,1.507-2.592,3.099h3.664v1.334h-5.907v-0.57L19.5,4.306z"/>
	<path fill="#FFFFFF" d="M15.634,16.183l0.011-4.869H26.06c0.106,0.679,0.16,1.38,0.16,2.078c0,7.367-5.914,13.361-13.174,13.361
		C5.782,26.765-0.132,20.77-0.132,13.403c0-7.367,5.914-13.361,13.174-13.361v4.715c-4.702,0-8.525,3.878-8.525,8.647
		c0,4.769,3.824,8.647,8.525,8.647c3.736,0,6.933-2.456,8.081-5.867H15.634z M35.965,12.821c0-3.52,0.213-4.954,0.787-5.813
		c0.722-1.076,2.113-1.669,3.93-1.669c1.604,0,2.942,0.474,3.653,1.326c0.54,0.601,0.764,1.442,0.764,2.768v0.798h-2.942
		c-0.042-1.507-0.084-1.777-0.297-2.101c-0.232-0.366-0.68-0.594-1.22-0.594c-0.585,0-1.06,0.258-1.262,0.648
		c-0.297,0.601-0.384,1.712-0.384,4.618c0,2.402,0.106,3.801,0.297,4.395c0.171,0.493,0.657,0.775,1.307,0.775
		c1.148,0,1.463-0.594,1.562-2.81h2.931c-0.023,1.873-0.129,2.637-0.521,3.369c-0.54,1.056-1.965,1.646-4.014,1.646
		c-2.387,0-3.831-0.894-4.31-2.617C36.06,16.861,35.965,15.169,35.965,12.821z M46.787,5.566h4.553c2.186,0,2.581,0.085,3.345,0.709
		c0.68,0.571,1.019,1.507,1.019,2.895c0,1.164-0.232,2.059-0.68,2.66c-0.384,0.528-0.848,0.756-1.847,0.979
		c1.901,0.235,2.558,1.141,2.581,3.566c0,0.389,0.042,1.184,0.084,2.174c0.042,0.69,0.065,0.817,0.232,1.422H52.94
		c-0.129-0.937-0.129-0.96-0.129-2.726c0-1.735-0.129-2.594-0.467-2.984c-0.232-0.258-0.486-0.324-1.243-0.324h-1.422v6.041h-2.9
		L46.787,5.566z M50.873,11.811c1.326,0,1.805-0.571,1.805-2.078c0-0.798-0.213-1.442-0.563-1.754
		c-0.255-0.216-0.445-0.258-1.167-0.258h-1.285v4.09H50.873z M57.551,12.748c0-3.362,0.148-4.522,0.722-5.536
		c0.68-1.237,2.09-1.874,4.097-1.874c2.22,0,3.725,0.84,4.31,2.421c0.296,0.775,0.426,2.294,0.426,5.062
		c0,3.026-0.148,4.456-0.563,5.278c-0.68,1.368-2.132,2.101-4.151,2.101c-2.018,0-3.409-0.624-4.109-1.873
		C57.71,17.324,57.551,16.129,57.551,12.748z M62.329,17.979c0.882,0,1.403-0.432,1.581-1.28c0.106-0.547,0.19-2.421,0.19-4.437
		c0-2.163-0.106-3.435-0.319-3.951c-0.19-0.474-0.745-0.775-1.444-0.775c-0.806,0-1.368,0.366-1.528,0.991
		c-0.148,0.601-0.232,2.101-0.232,4.395c0,1.904,0.065,3.153,0.171,3.759C60.907,17.547,61.424,17.979,62.329,17.979z M68.06,5.566
		h2.961l0.965,5.254c0.338,1.904,0.426,3.639,0.585,6.954c0.593-4.414,0.787-5.644,1.06-6.954l1.125-5.254h3.322l1.061,5.254
		c0.487,2.402,0.593,4.028,0.745,6.954c0.19-2.444,0.384-4.233,0.848-6.954l0.924-5.254h2.6L81.39,19.984h-3.216l-1.342-6.7
		c-0.232-1.164-0.521-3.886-0.585-5.362c-0.426,3.242-0.445,3.705-0.787,5.362l-1.38,6.696h-3.292L68.06,5.566z M85.526,5.566h3.972
		c2.303,0,3.007,0.131,3.725,0.648c0.901,0.667,1.349,1.831,1.539,4.113c0.065,0.894,0.106,2.035,0.106,3.049
		c0,2.594-0.179,3.867-0.593,4.715c-0.593,1.218-1.965,1.904-3.725,1.904h-5.01L85.526,5.566z M89.764,17.709
		c1.019,0,1.581-0.235,1.783-0.775c0.213-0.571,0.277-1.399,0.277-3.759c0-2.575-0.084-3.705-0.319-4.414
		c-0.213-0.601-0.787-0.937-1.669-0.937h-1.326v9.884H89.764z M31.655-0.112h-0.946v26.607h0.946V-0.112z"/>
	<path fill="#FFFFFF" d="M11.296,40.803c0.299-0.921,1.603-0.921,1.902,0l2.039,6.275c0.134,0.412,0.518,0.691,0.951,0.691h6.597
		c0.969,0,1.372,1.24,0.588,1.809l-5.337,3.878c-0.351,0.255-0.497,0.706-0.363,1.118l2.039,6.275
		c0.299,0.921-0.755,1.687-1.539,1.118l-5.338-3.878c-0.351-0.255-0.825-0.255-1.176,0l-5.337,3.878
		c-0.784,0.569-1.838-0.197-1.539-1.118l2.039-6.275c0.134-0.412-0.013-0.863-0.363-1.118l-5.338-3.878
		c-0.784-0.569-0.381-1.809,0.588-1.809h6.597c0.433,0,0.817-0.279,0.951-0.691L11.296,40.803z"/>
	<path fill="#FFFFFF" d="M40.632,40.803c0.299-0.921,1.603-0.921,1.902,0l2.039,6.275c0.134,0.412,0.518,0.691,0.951,0.691h6.597
		c0.969,0,1.372,1.24,0.588,1.809l-5.338,3.878c-0.35,0.255-0.497,0.706-0.363,1.118l2.039,6.275
		c0.299,0.921-0.755,1.687-1.539,1.118l-5.338-3.878c-0.35-0.255-0.825-0.255-1.175,0l-5.338,3.878
		c-0.784,0.569-1.838-0.197-1.539-1.118l2.039-6.275c0.134-0.412-0.013-0.863-0.363-1.118l-5.337-3.878
		c-0.784-0.569-0.381-1.809,0.588-1.809h6.597c0.433,0,0.817-0.279,0.951-0.691L40.632,40.803z"/>
	<path fill="#FFFFFF" d="M69.968,40.803c0.299-0.921,1.603-0.921,1.902,0l2.039,6.275c0.134,0.412,0.518,0.691,0.951,0.691h6.598
		c0.969,0,1.371,1.24,0.588,1.809l-5.338,3.878c-0.351,0.255-0.497,0.706-0.363,1.118l2.039,6.275
		c0.299,0.921-0.755,1.687-1.539,1.118l-5.338-3.878c-0.351-0.255-0.825-0.255-1.176,0l-5.338,3.878
		c-0.784,0.569-1.838-0.197-1.539-1.118l2.039-6.275c0.134-0.412-0.013-0.863-0.363-1.118l-5.337-3.878
		c-0.784-0.569-0.381-1.809,0.588-1.809h6.597c0.433,0,0.817-0.279,0.951-0.691L69.968,40.803z"/>
	<path fill="#FFFFFF" d="M99.305,40.803c0.299-0.921,1.603-0.921,1.902,0l2.039,6.275c0.134,0.412,0.518,0.691,0.951,0.691h6.597
		c0.969,0,1.372,1.24,0.588,1.809l-5.337,3.878c-0.351,0.255-0.497,0.706-0.364,1.118l2.039,6.275
		c0.3,0.921-0.755,1.687-1.539,1.118l-5.337-3.878c-0.351-0.255-0.825-0.255-1.176,0l-5.337,3.878
		c-0.784,0.569-1.838-0.197-1.539-1.118l2.039-6.275c0.134-0.412-0.013-0.863-0.363-1.118l-5.338-3.878
		c-0.784-0.569-0.381-1.809,0.588-1.809h6.597c0.433,0,0.817-0.279,0.951-0.691L99.305,40.803z"/>
	<path fill="#FFFFFF" d="M128.641,40.803c0.299-0.921,1.603-0.921,1.902,0l2.039,6.275c0.134,0.412,0.518,0.691,0.951,0.691h6.598
		c0.968,0,1.371,1.24,0.587,1.809l-5.337,3.878c-0.351,0.255-0.497,0.706-0.363,1.118l2.038,6.275
		c0.3,0.921-0.755,1.687-1.539,1.118l-5.337-3.878c-0.351-0.255-0.825-0.255-1.176,0l-5.337,3.878
		c-0.784,0.569-1.838-0.197-1.539-1.118l2.039-6.275c0.134-0.412-0.013-0.863-0.364-1.118l-5.337-3.878
		c-0.784-0.569-0.381-1.809,0.588-1.809h6.597c0.433,0,0.817-0.279,0.951-0.691L128.641,40.803z"/>
</g>
</svg>
