<svg width="804" height="543" viewBox="0 0 804 543" fill="none" xmlns="http://www.w3.org/2000/svg">
<g clip-path="url(#clip0)">
<path opacity="0.2" d="M10.1526 188.561C-0.916799 211.829 -0.173169 233.824 0.144099 239.507C2.60718 283.563 33.6314 315.984 41.1788 323.417C47.4591 329.6 52.1701 332.942 60.1949 342.396C69.1184 352.909 75.5659 363.236 80.2038 372.022C85.9707 382.95 94.4379 392.299 105.091 398.583C107.323 399.899 109.704 401.161 112.239 402.332C138.77 414.587 165.724 409.366 191.306 402.332C239.862 388.979 268.79 373.126 303.401 357.38C401.823 312.603 430.416 321.366 440.517 294.448C454.684 256.691 400.646 233.542 409.49 174.576C415.881 131.976 447.8 119.293 442.518 79.6782C442.133 76.7853 437.022 42.0596 411.492 27.734C381.894 11.1258 351.697 37.002 271.374 66.6922C200.723 92.8071 194.335 83.7848 116.242 114.641C51.1262 140.369 24.1984 159.037 10.1526 188.561Z" fill="#0056EC"/>
<path opacity="0.2" d="M152.552 84.8137C169.92 74.5028 179.192 79.0978 203.058 73.7236C207.411 72.7437 268.751 58.3181 272.961 27.3444C274.245 17.8965 270.345 5.94537 262.406 2.16143C249.985 -3.76021 234.474 13.5502 203.103 31.453C174.666 47.6806 159.308 53.6861 148.606 55.0057C146.251 55.2964 136.492 56.3782 127.408 63.0561C123.565 65.88 117.082 70.6459 117.023 77.7882C116.964 84.9236 123.342 91.5415 129.895 93.2067C138.081 95.2865 145.057 89.2639 152.552 84.8137Z" fill="#0056EC"/>
<path opacity="0.2" d="M463.036 206.542C474.92 206.542 484.554 194.019 484.554 178.572C484.554 163.125 474.92 150.602 463.036 150.602C451.152 150.602 441.518 163.125 441.518 178.572C441.518 194.019 451.152 206.542 463.036 206.542Z" fill="#0056EC"/>
<path opacity="0.2" d="M767.49 276.661C777.453 270.195 776.695 251.394 765.797 234.67C754.899 217.946 737.989 209.63 728.026 216.097C718.064 222.564 718.822 241.364 729.72 258.088C740.617 274.813 757.528 283.128 767.49 276.661Z" fill="#0056EC"/>
<path opacity="0.2" d="M432.326 442.794C452.035 467.314 485.75 477.963 513.353 490.752C547.378 506.514 581.16 522.713 616.841 534.049C644.793 542.93 675.578 543.792 704.881 542.501C788.85 538.8 818.391 424.19 797.587 357.563C796.472 353.988 795.188 350.465 793.719 347.019C784.525 325.463 769.207 315.116 751.107 301.657C724.234 281.673 699.928 257.744 685.904 227.114C674.664 202.565 664.631 171.76 637.765 160.06C627.243 155.478 615.313 154.982 603.941 156.547C571.995 160.939 541.443 181.676 529.112 211.91C516.296 243.335 522.82 278.443 525.207 311.145C525.508 315.269 525.779 319.586 524.118 323.375C522.388 327.325 518.806 330.126 515.219 332.528C487.787 350.893 444.095 344.383 423.287 373.01C411.639 389.035 413.822 411.899 423.288 429.298C425.891 434.082 428.932 438.571 432.326 442.794Z" fill="#0056EC"/>
<path d="M653.254 293.925C658.555 292.938 663.144 289.361 666.148 284.891C669.153 280.421 670.706 275.117 671.513 269.795C673.749 255.048 670.359 239.52 662.179 227.037C660.281 224.139 658.007 221.298 654.847 219.867C649.059 217.245 642.025 220.264 637.82 225.021C632.75 230.753 630.662 238.662 630.77 246.306C630.878 253.951 632.999 261.423 635.499 268.65C639.203 279.364 644.788 290.803 655.384 294.877L653.254 293.925Z" fill="#ACC6FC"/>
<path d="M659.839 316.081C660.796 316.674 661.76 317.26 662.724 317.839C663.413 318.084 664.094 318.345 664.776 318.62L659.839 316.081Z" fill="#0056EC"/>
<path d="M709.364 370.13C718.252 365.629 724.268 356.278 725.158 346.38C726.179 335.037 716.504 324.889 707.776 319.156C698.332 312.953 688.35 308.178 681.667 298.694C674.152 288.03 672.305 275.873 671.856 263.142C671.572 255.07 671.286 246.664 667.483 239.335C663.859 232.348 657.738 227.006 650.415 224.163C649.447 223.788 649.869 222.213 650.848 222.594C663.102 227.35 670.793 237.995 672.616 250.845C673.646 258.106 673.298 265.461 674.01 272.746C674.758 280.393 676.985 287.836 680.891 294.48C684.721 300.994 689.893 305.973 696.191 310.078C701.597 313.601 707.363 316.585 712.513 320.496C720.076 326.241 727.667 336.352 726.789 346.38C725.873 356.833 719.596 366.771 710.187 371.536C709.254 372.009 708.427 370.605 709.364 370.13Z" fill="#FFFDFF"/>
<path d="M593.059 265.695C596.937 274.062 601.144 283.609 597.749 292.866C594.654 301.306 585.966 304.074 579.124 308.727C573.234 312.733 568.343 318.496 566.397 325.43C563.591 335.436 567.427 345.518 572.638 354.019C573.188 354.915 571.778 355.734 571.23 354.84C563.057 341.509 560.31 325.41 571.645 313.034C577.158 307.013 584.846 304.524 591.015 299.432C601.647 290.658 596.465 276.898 591.651 266.517C591.213 265.573 592.618 264.745 593.059 265.695Z" fill="#FFFDFF"/>
<path d="M601.913 307.351C587.127 300.401 568.612 305.092 559.742 319.014C555.777 325.236 553.784 332.808 554.478 340.174C555.31 348.996 559.959 356.72 564.458 364.139C565.003 365.038 563.593 365.856 563.049 364.961C558.308 357.144 553.464 348.969 552.8 339.639C552.216 331.443 554.718 323.049 559.546 316.414C569.329 302.971 587.869 298.959 602.736 305.946C603.686 306.391 602.859 307.794 601.913 307.351Z" fill="#FFFDFF"/>
<path d="M670.619 289.325C679.807 294.856 691.033 294.7 700.843 298.866C710.064 302.782 718.458 308.741 725.034 316.302C736.75 329.772 741.915 347.86 736.595 365.167C733.048 376.703 725.563 386.444 716.755 394.519C715.984 395.226 714.827 394.079 715.602 393.368C729.979 380.186 740.254 361.852 736.256 341.876C732.427 322.752 717.133 307.259 699.413 300.02C689.726 296.063 678.858 296.186 669.796 290.731C668.899 290.19 669.717 288.782 670.619 289.325Z" fill="#FFFDFF"/>
<path d="M591.622 265.188C597.544 274.017 604.265 289.009 598.092 297.665C594.646 302.497 589.698 306.01 584.878 309.479C580.059 312.949 575.169 316.577 571.923 321.543C568.675 326.51 567.358 333.16 570.124 338.408C571.928 341.831 575.236 344.264 578.796 345.788C589.156 350.226 601.251 347.57 611.484 342.846C618.751 339.491 626.009 334.581 628.677 327.047C630.162 322.85 630.052 318.23 629.177 313.867C626.98 302.898 620.181 293.31 612.079 285.582C608.711 282.371 604.968 279.239 603.293 274.902L591.622 265.188Z" fill="#ACC6FC"/>
<path d="M646.205 308.096C646.48 316.054 647.336 324.179 650.728 331.392C656.694 344.096 669.546 352.091 682.426 357.712C689.146 360.642 696.3 363.174 703.628 362.776C710.95 362.379 718.495 358.435 721.228 351.634C723.41 346.194 722.163 339.813 719.097 334.813C716.039 329.807 711.363 325.994 706.478 322.745C698.606 317.507 689.813 313.347 683.405 306.402C676.164 298.574 672.677 287.823 672.047 277.188C671.684 271.003 672.214 264.795 672.09 258.595C672.083 257.886 672.061 257.17 672.018 256.46C672.011 256.106 671.989 255.744 671.967 255.39C671.517 248.14 669.618 240.623 664.66 235.306L668.872 262.964L668.908 263.189C668.85 263.225 668.792 263.254 668.741 263.29C665.921 265.048 667.008 268.188 664.029 269.895C661.18 271.53 658.31 273.179 655.874 275.386C647.155 283.274 645.799 296.354 646.205 308.096Z" fill="#ACC6FC"/>
<path d="M670.452 301.396C675.142 310.288 682.68 315.91 690.864 321.386C699.135 326.921 712.784 336.571 709.037 348.393C708.82 349.065 709.87 349.348 710.081 348.682C712.661 340.55 706.573 332.455 700.788 327.361C693.357 320.821 684.007 316.734 677.302 309.333C664.457 295.145 663.631 274.801 672.09 258.595C672.083 257.886 672.061 257.17 672.018 256.46C670.808 258.558 669.756 260.736 668.873 262.964C668.83 263.073 668.786 263.181 668.743 263.29C663.965 275.51 664.081 289.314 670.452 301.396Z" fill="#FFFDFF"/>
<path d="M554.111 423.404C556.648 424.888 559.663 425.024 562.469 424.344C563.331 424.424 564.186 424.525 565.02 424.655C567.513 425.06 569.811 425.769 571.608 427.1C573.493 427.99 575.29 429.061 576.965 430.276C582.01 433.93 586.033 438.972 588.214 444.803C589.838 449.165 590.476 453.803 590.353 458.455C590.295 460.785 590.042 463.114 589.578 465.423C589.084 467.608 588.411 469.698 587.592 471.71C587.367 472.289 587.12 472.861 586.859 473.424C586.772 473.627 586.678 473.837 586.584 474.04C585.316 476.767 583.801 479.365 582.169 481.896C580.871 483.893 579.429 485.933 577.9 488.024C576.943 489.326 575.957 490.65 574.957 491.988C569.999 498.579 564.679 505.525 560.996 512.6C563.323 513.982 565.657 515.298 567.969 516.543C569.825 517.541 571.666 518.496 573.486 519.401C577.052 521.181 580.662 522.837 584.315 524.372C584.721 524.546 585.127 524.719 585.54 524.885C592.991 527.975 600.596 530.579 608.33 532.764C608.809 532.902 609.287 533.031 609.773 533.169C632.324 539.384 655.824 542.054 679.316 542.632C679.788 542.646 680.259 542.654 680.73 542.661C688.37 542.828 696.01 542.77 703.614 542.538C704.034 542.531 704.462 542.516 704.882 542.502H704.983C703.309 537.119 701.149 531.788 699.728 526.585C698.974 524.169 698.241 521.746 697.539 519.307C694.727 509.555 692.364 499.65 690.544 489.601C690.515 489.203 690.486 488.805 690.457 488.414C690.428 488.031 690.399 487.655 690.377 487.272C690.305 486.121 690.239 484.978 690.189 483.835C690.102 481.925 690.044 480.022 690.03 478.112C689.942 468.469 690.892 458.355 696.111 450.229C697.372 448.268 698.872 446.474 700.575 444.868C702.547 443.074 704.758 441.807 707.07 440.831C707.584 440.607 708.099 440.405 708.614 440.209C713.674 438.328 719.016 437.489 723.184 435.18C726.917 432.699 726.38 427.019 724.778 422.715C724.648 422.367 724.51 422.035 724.372 421.709C724.219 421.361 724.067 421.029 723.907 420.71C720.827 413.026 719.971 405.213 719.624 397.32C719.602 396.937 719.588 396.546 719.573 396.155C719.224 387.358 719.398 378.48 717.71 369.582C717.638 369.234 717.572 368.888 717.5 368.533C717.254 367.361 716.978 366.182 716.659 365.003C716.659 362.832 715.934 360.661 714.108 358.398C713.361 357.081 712.535 355.852 711.644 354.687C711.383 354.347 711.122 354.022 710.846 353.696C710.07 352.756 709.244 351.858 708.374 350.998C703.054 345.666 696.877 341.73 690.282 338.489C688.288 337.512 686.251 336.601 684.186 335.733C683.975 335.639 683.765 335.552 683.555 335.466C683.519 335.452 683.483 335.43 683.446 335.415C681.068 334.322 678.655 333.317 676.241 332.369C673.914 331.457 671.595 330.596 669.275 329.743C669.145 329.692 669.007 329.649 668.877 329.598C668.695 329.518 668.521 329.446 668.34 329.366C665.977 328.36 663.773 327.507 661.569 326.61C659.206 325.648 656.843 324.628 654.299 323.333L658.185 323.455C647.515 322.378 636.757 322.63 626.116 323.853C623.986 324.092 621.862 324.373 619.745 324.692C616.853 324.735 613.975 324.982 611.148 325.415C610.786 325.466 610.423 325.524 610.068 325.589C606.35 326.211 602.704 327.166 599.181 328.411C598.803 328.534 598.427 328.672 598.05 328.817C595.875 329.627 593.744 330.546 591.678 331.581C588.815 333.006 586.083 334.633 583.524 336.449C581.675 337.831 579.892 339.307 578.196 340.863C578 341.044 577.805 341.224 577.608 341.412C577.188 341.796 576.775 342.193 576.369 342.599C575.326 343.619 574.311 344.668 573.332 345.747C570.215 349.653 566.272 353.741 563.742 358.646C563.51 359.094 563.285 359.55 563.082 360.013C562.778 360.693 562.503 361.395 562.264 362.111C561.053 367.334 559.567 372.341 557.951 377.246C557.835 377.607 557.712 377.976 557.589 378.346C554.58 387.367 551.463 396.367 549.216 405.613C549.078 406.178 548.955 406.756 548.847 407.349C548.767 407.784 548.695 408.224 548.637 408.673C547.898 414.223 548.812 420.292 554.111 423.404Z" fill="#0741B0"/>
<path d="M620.34 338.988C621.225 341.875 622.704 344.175 624.549 345.869C625.165 346.433 625.82 346.929 626.508 347.358C638.376 357.048 647.074 344.748 654.053 336.977C654.55 336.491 655.041 335.983 655.523 335.456C656.487 334.402 657.418 333.269 658.311 332.065C658.622 331.569 658.865 331.048 659.05 330.51C659.976 327.82 659.471 324.684 659.036 321.784C657.268 309.963 657.992 296.398 656.101 285.567C656.05 285.553 656.007 285.531 655.963 285.524C653.542 284.699 654.498 285.973 652.092 287.211C651.925 287.297 651.759 287.391 651.592 287.478C650.389 288.187 649.323 289.098 648.286 290.032C648.156 290.155 648.025 290.271 647.895 290.387C640.24 297.289 632.593 304.191 624.945 311.1C624.923 311.122 624.902 311.136 624.873 311.136C624.076 311.375 622.162 305.326 621.619 306.129C621.256 306.665 621.118 307.974 621.096 309.572C621.045 312.843 621.451 317.314 621.357 318.819C621.357 318.87 621.357 318.912 621.35 318.956C621.075 321.792 620.85 324.635 620.676 327.486C620.571 329.179 620.482 330.874 620.412 332.57C620.389 333.135 620.366 333.701 620.345 334.268C620.255 335.343 620.255 336.79 620.211 337.781C620.188 338.175 620.177 338.604 620.34 338.988Z" fill="#F8A17A"/>
<path d="M605.828 364.132L603.32 356.201C602.878 354.802 601.526 353.891 600.06 354.006L581.527 355.456C579.499 355.615 578.147 357.617 578.762 359.553L592.214 401.929C592.666 403.355 594.061 404.268 595.551 404.114L615.172 402.091C617.208 401.881 618.51 399.825 617.826 397.9L605.828 364.132Z" fill="#DDDDDD"/>
<path d="M604.312 365.107L601.805 357.176C601.362 355.776 600.01 354.866 598.544 354.981L580.011 356.431C577.984 356.59 576.632 358.593 577.246 360.528L590.698 402.904C591.151 404.33 592.545 405.243 594.035 405.089L613.657 403.066C615.693 402.856 616.995 400.8 616.31 398.875L604.312 365.107Z" fill="#002B58"/>
<path d="M620.675 327.485C652.996 322.566 655.78 292.917 655.962 285.523C655.991 284.46 655.962 283.859 655.962 283.859C655.106 282.708 653.316 285.285 651.591 287.476C650.308 289.119 649.061 290.551 648.285 290.031C648.155 290.153 648.024 290.269 647.894 290.385C640.239 297.287 632.592 304.189 624.944 311.098C624.922 311.12 624.901 311.134 624.872 311.134C624.22 311.474 622.27 310.005 621.096 309.572C621.045 312.842 621.451 317.313 621.357 318.818C621.357 318.869 621.357 318.912 621.35 318.955C621.074 321.791 620.849 324.634 620.675 327.485Z" fill="#E5785C"/>
<path d="M601.234 265.989C601.263 267.161 601.335 268.326 601.438 269.476C601.489 270.106 601.547 270.728 601.619 271.35C601.749 274.722 602.032 278.165 602.561 281.551C604.142 291.579 607.918 301.114 616.464 306.88C620.27 309.882 625.233 312.964 630.051 313.929C635.487 315.017 639.442 311.459 643.125 307.995C646.017 305.275 648.481 302.127 650.33 298.742C651.149 297.476 651.895 296.188 652.563 294.857C654.563 290.87 655.846 286.443 656.194 281.61C656.295 280.149 656.353 278.688 656.39 277.248C656.426 275.802 656.434 274.383 656.426 272.994C656.455 272.082 656.477 271.171 656.498 270.267C659.905 271.251 663.92 269.695 665.646 266.599C667.371 263.509 666.515 259.182 663.66 257.085C660.804 254.979 656.303 255.514 654.121 258.314L653.425 259.32C653.367 258.192 653.309 257.071 653.251 255.942C653.171 254.474 653.099 252.997 653.026 251.529C652.954 250.11 652.852 248.613 652.011 247.47C651.185 246.348 649.807 245.785 648.459 245.43C644.386 244.359 639.956 244.678 636.086 246.327C635.825 246.436 635.564 246.552 635.31 246.682C634.999 246.827 634.687 246.986 634.382 247.152C633.926 247.398 633.484 247.659 633.048 247.934C632.932 248.005 632.816 248.085 632.7 248.158C632.497 248.296 632.294 248.433 632.091 248.571C631.591 248.918 631.099 249.287 630.627 249.678C630.388 249.865 630.149 250.061 629.917 250.264C629.445 250.67 628.982 251.081 628.532 251.509C628.336 251.69 628.141 251.877 627.953 252.066C627.895 252.117 627.83 252.182 627.772 252.24C627.584 252.421 627.394 252.609 627.206 252.797C627.061 252.949 626.916 253.094 626.786 253.246C626.489 253.543 626.206 253.839 625.93 254.143C625.51 254.598 625.097 255.055 624.683 255.517C623.82 256.523 622.929 257.557 621.987 258.585C621.965 258.614 621.943 258.636 621.922 258.657C621.008 259.655 620.051 260.639 619.051 261.565C617 263.453 614.782 265.088 612.361 266.087C609.94 267.085 607.316 267.44 604.474 266.767C603.408 266.59 602.328 266.344 601.234 265.989Z" fill="#F8A17A"/>
<path d="M601.438 269.476C601.489 270.106 601.547 270.728 601.619 271.35C601.749 274.722 602.032 278.165 602.561 281.551C614.587 282.029 628.135 276.408 633.463 265.714C638.472 255.658 649.25 255.585 653.251 255.94C653.171 254.472 653.099 252.995 653.026 251.527C652.954 250.108 652.852 248.611 652.011 247.468C651.185 246.346 649.807 245.783 648.459 245.428C644.386 244.357 639.956 244.676 636.086 246.325C635.825 246.434 635.564 246.55 635.31 246.68C634.999 246.825 634.687 246.984 634.382 247.15C633.926 247.396 633.484 247.657 633.048 247.932C632.932 248.004 632.816 248.083 632.7 248.156C632.497 248.294 632.294 248.431 632.091 248.569C631.591 248.924 631.106 249.292 630.627 249.676C630.388 249.864 630.149 250.059 629.917 250.262C629.445 250.668 628.982 251.079 628.532 251.507C628.336 251.688 628.141 251.875 627.953 252.064C627.895 252.115 627.83 252.18 627.772 252.238C627.439 252.564 627.105 252.903 626.786 253.244C626.489 253.541 626.206 253.837 625.93 254.141C625.51 254.596 625.097 255.053 624.683 255.515C623.784 256.528 622.893 257.563 621.987 258.583C621.965 258.612 621.943 258.634 621.922 258.655C619.581 261.31 617.167 263.9 614.296 265.948C610.577 268.601 605.887 270.28 601.438 269.476Z" fill="#E5785C"/>
<path d="M721.289 436.056C721.531 447.274 718.963 458.056 713.86 468.053C711.754 472.179 709.003 476.292 704.802 478.255C701.332 479.877 697.337 479.815 693.51 479.626C691.815 479.542 690.047 479.419 688.587 478.556C687.271 477.779 686.353 476.486 685.52 475.207C678.592 464.579 674.666 452.335 669.37 440.81C662.968 426.878 654.477 413.816 649.984 399.16C649.337 397.053 648.568 394.666 646.564 393.744C645.353 393.188 643.956 393.311 642.624 393.259C638.3 393.087 634.108 390.81 631.615 387.279C629.122 383.748 628.384 379.042 629.676 374.919C630.517 372.238 632.123 369.205 630.568 366.863C629.576 365.369 627.636 364.844 625.849 364.667C624.062 364.49 622.186 364.527 620.583 363.72C618.979 362.913 617.811 360.856 618.703 359.301C619.452 357.995 621.175 357.697 622.675 357.548C630.851 356.74 639.842 356.487 646.424 361.396C655.095 367.865 656.013 380.385 661.771 389.536C663.962 393.018 666.857 395.995 669.728 398.943C674.203 403.537 678.677 408.131 683.152 412.725C689.941 419.695 696.796 426.75 701.783 435.1C702.344 436.038 702.274 436.319 703.213 436.879C703.213 436.879 705.113 436.924 706.715 436.892C711.636 436.794 716.22 437.65 721.289 436.056Z" fill="#F8A17A"/>
<path d="M550.517 420.11C546.902 437.108 545.916 453.443 547.006 470.784C547.321 475.8 548.271 481.546 552.589 484.13C555.717 486.002 559.769 485.56 563.124 484.132C565.082 483.299 566.854 482.19 568.478 480.881C576.037 474.25 579.662 466.291 582.562 457.61C588.602 443.14 591.622 428.168 597.011 414.457C597.37 413.543 597.74 412.635 598.122 411.732C599.467 406.951 601.305 402.287 604.122 398.278C604.591 397.61 605.088 396.96 605.614 396.331C611.557 391.05 616.632 385.262 615.111 377.225C614.881 376.394 614.67 375.561 614.463 374.726C613.429 370.551 612.523 366.331 610.107 362.11C607.932 359.216 604.308 361.387 602.273 363.387C601.796 363.865 601.339 364.365 600.896 364.845C598.602 367.338 596.004 369.679 592.837 370.892C589.672 372.104 585.831 372.004 583.157 369.923C581.245 368.433 579.946 366.006 577.616 365.336C575.805 371.989 577.118 379.146 579.635 385.567C580.859 388.69 582.397 391.932 581.861 395.242C581.52 397.349 580.366 399.225 579.229 401.035C573.862 406.966 567.319 421.458 566.433 421.164C565.081 420.982 559.428 420.987 558.067 421.074C555.665 421.226 552.815 421.526 550.743 420.305L550.517 420.11Z" fill="#F8A17A"/>
<path d="M707.125 447.117C703.506 435.577 696.262 425.991 687.67 417.653C679.223 409.457 671.455 400.608 662.984 392.446C662.568 392.047 663.202 391.415 663.616 391.815C672.592 400.463 680.968 409.745 689.829 418.517C697.907 426.514 704.564 435.964 707.988 446.88C708.16 447.428 707.296 447.664 707.125 447.117Z" fill="white"/>
<path d="M689.133 418.606C689.641 413.234 688.582 407.859 689.465 402.509C689.558 401.943 690.421 402.183 690.328 402.746C689.459 408.015 690.528 413.316 690.028 418.606C689.973 419.174 689.079 419.179 689.133 418.606Z" fill="white"/>
<path d="M637.807 371.557C635.645 369.139 633.035 367.227 629.98 366.085C627.308 365.086 624.586 365.256 621.864 364.665C619.249 364.098 616.791 360.968 618.598 358.362C618.923 357.893 619.699 358.339 619.371 358.813C616.643 362.744 622.908 363.84 625.299 364.088C626.983 364.263 628.63 364.634 630.218 365.225C633.426 366.416 636.17 368.389 638.44 370.927C638.822 371.352 638.192 371.986 637.807 371.557Z" fill="white"/>
<path d="M579.499 400.984C570.747 416.923 558.689 431.266 553.53 448.967C553.367 449.526 552.489 449.288 552.653 448.725C557.836 430.945 569.924 416.535 578.714 400.526C578.995 400.013 579.78 400.471 579.499 400.984Z" fill="white"/>
<path d="M575.698 405.878C575.614 403.204 575.793 400.501 576.21 397.859C576.302 397.283 577.177 397.528 577.087 398.1C576.683 400.661 576.527 403.288 576.608 405.878C576.626 406.462 575.716 406.461 575.698 405.878Z" fill="white"/>
<path d="M565.859 421.917C563.964 421.327 562.335 420.785 560.363 421.155C558.74 421.459 557.162 421.928 555.495 421.864C552.749 421.759 550.131 420.8 548.143 418.508C547.782 418.093 548.279 417.404 548.641 417.822C551.261 420.842 554.958 421.321 558.402 420.663C559.815 420.393 561.229 419.914 562.678 419.974C563.928 420.025 564.755 420.643 565.993 421.028C566.48 421.18 566.351 422.071 565.859 421.917Z" fill="white"/>
<path d="M723.501 435.245C721.779 437.144 719.373 437.429 716.934 437.669C712.63 438.091 708.313 438 704.016 437.547C703.45 437.487 703.444 436.594 704.016 436.654C707.142 436.985 710.271 437.133 713.413 437.013C716.496 436.894 720.63 437.082 722.869 434.614C723.256 434.188 723.886 434.82 723.501 435.245Z" fill="white"/>
<path d="M698.611 209.062C698.012 209.02 697.561 208.501 697.603 207.903C697.611 207.791 697.645 207.474 697.701 206.97C697.783 206.225 697.914 205.052 698.069 203.507C698.133 202.909 698.662 202.475 699.26 202.535C699.857 202.595 700.293 203.128 700.233 203.724C700.077 205.278 699.945 206.459 699.863 207.208C699.812 207.667 699.78 207.955 699.772 208.056C699.767 208.133 699.753 208.207 699.733 208.278C699.596 208.762 699.135 209.099 698.611 209.062ZM699.466 200.351C698.868 200.299 698.425 199.773 698.477 199.176C698.592 197.855 698.709 196.406 698.824 194.844C698.867 194.243 699.39 193.796 699.989 193.841C700.588 193.885 701.038 194.405 700.994 195.002C700.879 196.576 700.76 198.034 700.645 199.364C700.639 199.435 700.626 199.503 700.607 199.569C700.466 200.058 699.993 200.396 699.466 200.351ZM700.134 191.657C699.535 191.621 699.078 191.106 699.115 190.507C699.199 189.123 699.279 187.675 699.351 186.172C699.381 185.576 699.889 185.111 700.49 185.14C701.089 185.169 701.553 185.678 701.524 186.276C701.45 187.788 701.37 189.246 701.285 190.639C701.281 190.719 701.267 190.797 701.245 190.872C701.109 191.351 700.653 191.689 700.134 191.657ZM700.582 182.958C699.981 182.937 699.512 182.435 699.533 181.836C699.582 180.426 699.624 178.979 699.656 177.498C699.67 176.897 700.166 176.423 700.767 176.436C701.367 176.449 701.844 176.946 701.831 177.545C701.799 179.036 701.757 180.492 701.707 181.912C701.704 182.001 701.69 182.089 701.666 182.172C701.532 182.641 701.091 182.976 700.582 182.958ZM700.799 174.256C700.198 174.251 699.715 173.761 699.719 173.162C699.73 171.738 699.731 170.292 699.721 168.826C699.717 168.227 700.201 167.737 700.801 167.733C701.402 167.729 701.892 168.211 701.896 168.812C701.906 170.289 701.905 171.745 701.894 173.179C701.893 173.28 701.879 173.377 701.853 173.469C701.722 173.926 701.298 174.26 700.799 174.256ZM700.769 165.553C700.168 165.567 699.67 165.092 699.657 164.492C699.624 163.061 699.581 161.616 699.524 160.161C699.5 159.563 699.968 159.057 700.569 159.034C701.169 159.011 701.674 159.478 701.698 160.077C701.754 161.544 701.799 163.001 701.831 164.443C701.834 164.555 701.819 164.663 701.79 164.766C701.664 165.211 701.257 165.542 700.769 165.553ZM700.465 156.857C699.864 156.891 699.351 156.434 699.317 155.836C699.235 154.4 699.14 152.96 699.031 151.515C698.985 150.918 699.434 150.395 700.034 150.351C700.633 150.306 701.155 150.755 701.2 151.352C701.31 152.81 701.406 154.265 701.489 155.713C701.497 155.838 701.483 155.958 701.449 156.071C701.325 156.504 700.939 156.83 700.465 156.857ZM699.846 148.186C699.248 148.244 698.717 147.806 698.659 147.21C698.518 145.752 698.361 144.304 698.194 142.903C698.124 142.309 698.548 141.768 699.144 141.697C699.741 141.626 700.282 142.05 700.354 142.646C700.523 144.062 700.682 145.527 700.825 147.001C700.838 147.14 700.825 147.276 700.789 147.403C700.669 147.819 700.305 148.141 699.846 148.186ZM698.859 139.537C698.265 139.623 697.713 139.211 697.627 138.618C697.421 137.193 697.193 135.757 696.951 134.352C696.847 133.759 697.246 133.2 697.837 133.097C698.429 132.995 698.991 133.392 699.093 133.982C699.34 135.406 699.57 136.861 699.78 138.306C699.802 138.462 699.79 138.616 699.75 138.759C699.636 139.158 699.298 139.474 698.859 139.537ZM697.433 130.958C696.846 131.078 696.27 130.7 696.15 130.112C695.858 128.687 695.542 127.27 695.213 125.904C695.074 125.321 695.432 124.734 696.017 124.594C696.6 124.454 697.188 124.813 697.328 125.395C697.663 126.787 697.984 128.226 698.281 129.676C698.317 129.852 698.308 130.027 698.262 130.19C698.154 130.568 697.845 130.874 697.433 130.958ZM695.465 122.488C694.887 122.651 694.286 122.316 694.123 121.739C693.725 120.332 693.302 118.948 692.863 117.629C692.676 117.06 692.984 116.446 693.555 116.257C694.125 116.069 694.741 116.378 694.929 116.947C695.376 118.297 695.809 119.71 696.216 121.149C696.273 121.35 696.269 121.553 696.216 121.74C696.117 122.091 695.843 122.382 695.465 122.488ZM692.82 114.211C692.26 114.428 691.63 114.151 691.412 113.593C690.881 112.229 690.319 110.904 689.743 109.652C689.491 109.108 689.731 108.461 690.277 108.213C690.822 107.962 691.469 108.201 691.719 108.746C692.313 110.036 692.891 111.402 693.439 112.806C693.529 113.036 693.534 113.276 693.472 113.496C693.382 113.812 693.149 114.083 692.82 114.211ZM689.306 106.272C688.78 106.559 688.118 106.366 687.83 105.839C687.132 104.565 686.397 103.338 685.642 102.195C685.313 101.695 685.451 101.021 685.953 100.692C686.455 100.362 687.129 100.501 687.46 101.001C688.246 102.194 689.012 103.471 689.74 104.798C689.882 105.059 689.907 105.352 689.831 105.616C689.754 105.885 689.572 106.126 689.306 106.272ZM684.681 98.9386C684.213 99.3142 683.529 99.2403 683.152 98.7728C682.253 97.656 681.305 96.6021 680.338 95.6412C679.912 95.2176 679.911 94.5314 680.334 94.1058C680.757 93.6813 681.447 93.6793 681.872 94.1018C682.897 95.1197 683.898 96.2335 684.847 97.4123C685.077 97.698 685.139 98.0636 685.046 98.3912C684.987 98.599 684.863 98.7918 684.681 98.9386ZM678.717 92.6824C678.35 93.1568 677.666 93.2448 677.192 92.8781C676.081 92.0221 674.914 91.2419 673.724 90.5596C673.454 90.4048 673.275 90.1511 673.208 89.8714C672.954 90.1441 672.567 90.2799 672.176 90.194C671.589 90.0662 671.218 89.4868 671.347 88.9014C671.641 87.5589 671.759 86.2043 671.696 84.8717C671.671 84.2734 672.132 83.7639 672.731 83.736C673.331 83.708 673.84 84.1705 673.869 84.7689C673.931 86.0914 673.839 87.433 673.593 88.7636C673.931 88.4988 674.411 88.4489 674.807 88.6757C676.083 89.4069 677.332 90.242 678.521 91.159C678.883 91.4387 679.021 91.9012 678.902 92.3157C678.865 92.4456 678.804 92.5695 678.717 92.6824ZM671.962 93.6953C671.314 95.0368 670.51 96.3424 669.574 97.5741C669.21 98.0516 668.528 98.1445 668.049 97.7819C667.571 97.4193 667.479 96.739 667.84 96.2605C668.69 95.1447 669.416 93.964 670.001 92.7533C670.261 92.2129 670.911 91.9861 671.452 92.2458C671.935 92.4786 672.169 93.022 672.027 93.5195C672.012 93.5794 671.99 93.6373 671.962 93.6953ZM671.381 88.1402C671.159 88.6966 670.526 88.9683 669.968 88.7466C669.037 88.376 668.069 88.0473 667.093 87.7696C666.724 87.6647 666.352 87.5658 665.973 87.4739C665.39 87.3311 665.033 86.7437 665.175 86.1614C665.307 85.581 665.905 85.2224 666.49 85.3642C666.894 85.4631 667.294 85.568 667.689 85.6809C668.737 85.9786 669.774 86.3312 670.774 86.7288C671.296 86.9365 671.568 87.5039 671.417 88.0334C671.407 88.0703 671.395 88.1053 671.381 88.1402ZM672.333 81.5953C671.761 81.7811 671.148 81.4694 670.963 80.899C670.554 79.6484 669.973 78.4057 669.235 77.206C668.921 76.6945 669.081 76.0272 669.594 75.7126C670.105 75.3989 670.774 75.5587 671.09 76.0692C671.917 77.4147 672.57 78.8132 673.031 80.2257C673.1 80.4385 673.101 80.6583 673.043 80.8581C672.946 81.1957 672.69 81.4794 672.333 81.5953ZM666.495 100.918C665.33 101.966 664.093 102.877 662.82 103.623C662.301 103.926 661.635 103.752 661.332 103.235C661.027 102.718 661.201 102.052 661.72 101.75C662.867 101.078 663.983 100.256 665.039 99.3052C665.485 98.9037 666.173 98.9386 666.575 99.3842C666.836 99.6729 666.912 100.061 666.813 100.41C666.758 100.598 666.653 100.776 666.495 100.918ZM668.271 73.9864C667.827 74.39 667.139 74.357 666.735 73.9135C665.859 72.9525 664.837 71.9746 663.697 71.0106C663.238 70.622 663.181 69.9388 663.569 69.4803C663.958 69.0228 664.644 68.9668 665.102 69.3544C666.314 70.3803 667.405 71.4232 668.343 72.4531C668.607 72.7418 668.684 73.1323 668.585 73.482C668.532 73.6688 668.427 73.8456 668.271 73.9864ZM658.524 105.413C656.934 105.794 655.492 105.807 654.237 105.451C654.009 105.386 653.789 105.309 653.577 105.221C653.022 104.99 652.755 104.352 652.992 103.8C653.224 103.247 653.861 102.986 654.415 103.217C654.551 103.274 654.691 103.322 654.834 103.364C655.711 103.613 656.811 103.592 658.016 103.303C658.6 103.163 659.187 103.522 659.327 104.104C659.372 104.292 659.365 104.481 659.316 104.655C659.213 105.019 658.919 105.319 658.524 105.413ZM661.829 86.7487L661.78 86.7437C661.444 86.7647 659.894 86.8956 658.106 87.5948C657.546 87.8136 656.916 87.5389 656.697 86.9805C656.476 86.4221 656.753 85.7918 657.313 85.574C659.669 84.653 661.689 84.5741 661.773 84.5711L662.072 84.592C662.67 84.659 663.099 85.1964 663.031 85.7928C663.024 85.8537 663.012 85.9126 662.996 85.9696C662.854 86.47 662.364 86.8097 661.829 86.7487ZM661.841 68.1597C661.497 68.6512 660.817 68.769 660.326 68.4254C659.207 67.6422 658 66.8621 656.74 66.1069C656.224 65.7982 656.059 65.1289 656.366 64.6175C656.676 64.103 657.343 63.9362 657.859 64.2459C659.163 65.027 660.413 65.8352 661.574 66.6483C661.963 66.921 662.118 67.4025 661.995 67.834C661.964 67.9469 661.913 68.0578 661.841 68.1597ZM651.62 102.037C651.043 102.202 650.441 101.868 650.276 101.291C650.181 100.958 650.103 100.602 650.045 100.232C649.848 98.9836 649.76 97.7839 649.782 96.6661C649.793 96.0667 650.29 95.5902 650.891 95.6022C651.491 95.6142 651.969 96.1097 651.957 96.709C651.937 97.7 652.017 98.7718 652.194 99.8946C652.238 100.177 652.297 100.447 652.368 100.696C652.426 100.898 652.422 101.102 652.368 101.29C652.268 101.639 651.996 101.93 651.62 102.037ZM654.78 89.6476C653.843 90.5317 653.13 91.6005 652.659 92.8252C652.445 93.3856 651.815 93.6653 651.255 93.4515C650.694 93.2378 650.411 92.6184 650.628 92.05C651.215 90.5177 652.11 89.1791 653.286 88.0703C653.722 87.6587 654.411 87.6777 654.823 88.1143C655.096 88.403 655.18 88.8015 655.078 89.1581C655.027 89.3379 654.928 89.5088 654.78 89.6476ZM654.467 63.5566C654.189 64.0881 653.531 64.2928 652.998 64.0151C651.765 63.3708 650.468 62.7355 649.142 62.1242C648.597 61.8734 648.361 61.2291 648.611 60.6837C648.862 60.1393 649.509 59.9016 650.054 60.1533C651.413 60.7786 652.743 61.4309 654.007 62.0922C654.472 62.3349 654.688 62.8664 654.55 63.3508C654.53 63.4198 654.503 63.4897 654.467 63.5566ZM646.615 59.8206C646.389 60.376 645.753 60.6418 645.198 60.416C643.892 59.8846 642.539 59.3661 641.178 58.8767C640.613 58.6729 640.32 58.0485 640.523 57.4871C640.727 56.9228 641.351 56.6311 641.915 56.8338C643.304 57.3343 644.684 57.8627 646.019 58.4062C646.537 58.6169 646.804 59.1813 646.655 59.7068C646.643 59.7447 646.63 59.7827 646.615 59.8206ZM638.462 56.7889C638.28 57.3603 637.669 57.6759 637.096 57.4941C635.947 57.1285 634.762 56.7719 633.575 56.4353L632.965 56.2635C632.386 56.1016 632.049 55.5033 632.21 54.9259C632.36 54.3205 632.972 54.0109 633.55 54.1727L634.172 54.3475C635.38 54.6911 636.586 55.0548 637.757 55.4264C638.318 55.6052 638.633 56.1955 638.473 56.7579C638.469 56.7669 638.466 56.7779 638.462 56.7889ZM628.79 55.1776C627.406 54.843 625.989 54.5253 624.579 54.2336C623.991 54.1118 623.614 53.5374 623.735 52.95C623.862 52.3626 624.432 51.986 625.021 52.1069C626.454 52.4036 627.894 52.7263 629.301 53.0669C629.886 53.2077 630.244 53.7951 630.102 54.3775C630.098 54.3915 630.095 54.4055 630.091 54.4194C629.933 54.9778 629.359 55.3145 628.79 55.1776ZM620.34 53.4285C618.931 53.1848 617.496 52.96 616.075 52.7602C615.481 52.6773 615.066 52.1279 615.15 51.5335C615.233 50.9422 615.784 50.5266 616.379 50.6095C617.824 50.8123 619.281 51.0411 620.712 51.2888C621.304 51.3917 621.701 51.9531 621.598 52.5445C621.591 52.5834 621.583 52.6204 621.572 52.6573C621.422 53.1838 620.893 53.5244 620.34 53.4285ZM611.792 52.2258C610.372 52.072 608.925 51.9371 607.493 51.8262C606.894 51.7803 606.446 51.2578 606.492 50.6605C606.538 50.0571 607.062 49.6156 607.66 49.6615C609.115 49.7744 610.585 49.9103 612.027 50.0681C612.623 50.133 613.056 50.6685 612.99 51.2648C612.983 51.3268 612.971 51.3877 612.955 51.4456C612.812 51.9441 612.326 52.2837 611.792 52.2258ZM603.184 51.5595C601.756 51.4936 600.304 51.4486 598.87 51.4266C598.269 51.4177 597.79 50.9242 597.799 50.3248C597.808 49.7255 598.302 49.247 598.903 49.256C600.36 49.278 601.834 49.3239 603.285 49.3918C603.885 49.4198 604.349 49.9273 604.321 50.5266C604.317 50.6125 604.303 50.6954 604.281 50.7744C604.145 51.2478 603.698 51.5835 603.184 51.5595ZM594.551 51.4266C593.122 51.4486 591.671 51.4936 590.236 51.5595C589.636 51.5875 589.127 51.124 589.099 50.5246C589.073 49.9273 589.536 49.4178 590.136 49.3898C591.593 49.3229 593.068 49.277 594.519 49.256C595.12 49.247 595.614 49.7255 595.623 50.3248C595.625 50.4337 595.61 50.5396 595.582 50.6395C595.453 51.087 595.042 51.4187 594.551 51.4266ZM585.927 51.8242C584.495 51.9351 583.048 52.069 581.628 52.2228C581.031 52.2877 580.494 51.8562 580.429 51.2608C580.365 50.6655 580.795 50.129 581.393 50.0641C582.834 49.9083 584.303 49.7724 585.759 49.6596C586.357 49.6136 586.881 50.0611 586.927 50.6585C586.937 50.7903 586.923 50.9192 586.889 51.0391C586.769 51.4636 586.394 51.7883 585.927 51.8242ZM577.345 52.7542C575.928 52.952 574.494 53.1758 573.081 53.4185C572.489 53.5204 571.927 53.1238 571.825 52.5325C571.723 51.9421 572.121 51.3797 572.713 51.2788C574.148 51.0321 575.605 50.8053 577.044 50.6045C577.64 50.5216 578.189 50.9352 578.272 51.5285C578.294 51.6834 578.282 51.8352 578.242 51.9761C578.126 52.3766 577.785 52.6923 577.345 52.7542ZM568.838 54.2137C567.424 54.5023 566.006 54.815 564.624 55.1417C564.039 55.2805 563.453 54.9199 563.315 54.3365C563.176 53.7532 563.538 53.1678 564.121 53.0299C565.526 52.6973 566.967 52.3796 568.403 52.0869C568.991 51.9671 569.566 52.3457 569.686 52.933C569.722 53.1098 569.713 53.2847 569.667 53.4465C569.559 53.8241 569.25 54.1297 568.838 54.2137ZM560.44 56.2015C559.066 56.5721 557.671 56.9727 556.292 57.3912C555.717 57.5661 555.109 57.2424 554.935 56.668C554.759 56.0936 555.085 55.4873 555.659 55.3135C557.06 54.8879 558.478 54.4814 559.873 54.1048C560.452 53.9479 561.05 54.2906 561.207 54.869C561.261 55.0667 561.256 55.2655 561.204 55.4493C561.102 55.8049 560.823 56.0986 560.44 56.2015ZM552.184 58.7108C550.825 59.1703 549.457 59.6578 548.119 60.1583C547.556 60.3681 546.93 60.0834 546.719 59.522C546.508 58.9606 546.793 58.3352 547.356 58.1245C548.715 57.616 550.104 57.1215 551.486 56.654C552.054 56.4612 552.673 56.7659 552.865 57.3333C552.939 57.5501 552.94 57.7738 552.881 57.9786C552.786 58.3113 552.535 58.592 552.184 58.7108ZM544.101 61.7316C542.778 62.274 541.444 62.8444 540.135 63.4288C539.587 63.6735 538.944 63.4278 538.698 62.8804C538.453 62.3329 538.698 61.6916 539.247 61.4459C540.576 60.8525 541.932 60.2722 543.276 59.7217C543.831 59.494 544.467 59.7597 544.695 60.3141C544.791 60.5479 544.799 60.7966 544.735 61.0233C544.647 61.333 544.422 61.6007 544.101 61.7316ZM536.222 65.2488C534.935 65.8721 533.638 66.5244 532.367 67.1877C531.835 67.4654 531.177 67.2606 530.899 66.7292C530.62 66.1968 530.826 65.5415 531.358 65.2638C532.648 64.5895 533.965 63.9272 535.272 63.2949C535.812 63.0332 536.463 63.2579 536.725 63.7984C536.847 64.0481 536.863 64.3218 536.793 64.5685C536.712 64.8562 536.512 65.109 536.222 65.2488ZM528.574 69.2435C527.33 69.9428 526.075 70.672 524.844 71.4132C524.33 71.7229 523.661 71.558 523.351 71.0436C523.041 70.5301 523.206 69.8629 523.721 69.5532C524.97 68.801 526.244 68.0598 527.507 67.3516C528.031 67.0569 528.694 67.2427 528.989 67.7651C529.137 68.0278 529.164 68.3255 529.087 68.5952C529.012 68.8609 528.834 69.0977 528.574 69.2435Z" fill="#2863FD"/>
<path d="M527.27 63.2559L525.485 56.8198L496.536 94.5193L527.27 63.2559Z" fill="#2863FD"/>
<path d="M534.736 70.2114L536.162 77.5685L496.536 94.5193L534.736 70.2114Z" fill="#2863FD"/>
<path d="M525.485 56.8199L513.827 54.4175L496.536 94.5194L525.485 56.8199Z" fill="#F1F8FF"/>
<path d="M532.668 57.0986L496.536 94.5195L550.36 60.4141L532.668 57.0986Z" fill="#F1F8FF"/>
<path d="M580.242 258.039C580.553 259.001 580.901 259.956 581.308 260.882C581.554 261.446 581.815 262.01 582.097 262.553C582.337 263.037 582.598 263.515 582.873 263.978C583.309 264.724 583.787 265.447 584.301 266.149C586.498 269.13 589.484 271.604 592.833 273.167C593.717 273.579 594.63 273.926 595.558 274.201C597.914 274.918 600.385 275.17 602.835 274.846C603.009 274.832 603.19 274.803 603.365 274.774C607.272 274.129 610.599 272.213 613.701 269.767C613.715 269.767 613.723 269.76 613.737 269.738C616.449 267.604 618.978 265.072 621.58 262.641C621.602 262.626 621.616 262.612 621.623 262.598C623.239 261.1 624.878 259.632 626.595 258.336C627.675 257.519 628.806 256.759 629.973 256.072C629.98 256.072 629.988 256.065 629.988 256.065C632.939 254.314 636.135 252.983 639.448 252.1L639.455 252.093C639.462 252.086 639.47 252.086 639.477 252.093H639.484C639.803 251.999 640.101 251.926 640.419 251.847C644.848 250.784 650.443 251.985 654.205 249.221C654.307 249.149 654.409 249.069 654.503 248.982C655.082 248.512 655.583 247.956 656.025 247.347C656.38 246.87 656.692 246.356 656.982 245.835C657.12 245.589 657.25 245.335 657.38 245.083C658.12 243.809 658.699 242.47 659.142 241.104C659.149 241.097 659.149 241.09 659.149 241.09C660.425 237.111 660.533 232.814 659.917 228.631C659.75 227.503 659.533 226.389 659.265 225.289L659.381 228.66L659.388 228.87C659.301 228.407 659.192 227.958 659.062 227.518C659.062 227.503 659.055 227.489 659.047 227.467C658.894 226.931 658.713 226.411 658.503 225.911C657.524 223.524 655.988 221.542 654.074 219.986C651.298 217.721 647.732 216.368 643.948 215.992C642.593 215.862 641.23 215.753 639.859 215.673C638.489 215.586 637.119 215.521 635.742 215.478C629.174 214.104 621.991 212.02 615.032 210.964C613.648 210.748 612.263 210.581 610.894 210.465C607.987 209.814 605.196 209.633 602.565 209.864C601.253 209.98 599.977 210.197 598.745 210.509C593.67 211.5 589.727 213.75 586.726 216.803C585.719 217.823 584.82 218.93 584.023 220.109C576.038 231.162 576.763 245.631 580.242 258.039Z" fill="#ACC6FC"/>
<path d="M588.339 264.651C589.296 268.377 591.586 271.494 594.623 273.6C594.927 273.817 595.24 274.02 595.558 274.201C596.087 274.526 596.638 274.816 597.203 275.076C598.827 275.821 600.588 276.312 602.415 276.508C610.214 277.325 616.876 273.166 622.08 267.797C625.002 264.788 627.792 261.445 631.612 259.542C636.15 257.285 641.377 257.322 646.197 256.041C650.234 254.97 654.25 252.59 656.04 249.06C656.547 248.076 656.881 246.998 656.983 245.833C657.026 245.442 657.034 245.044 657.019 244.632C656.997 244.068 656.925 243.49 656.802 242.889C656.584 241.862 655.011 242.303 655.228 243.324C655.642 245.292 655.46 246.927 654.851 248.294C654.75 248.533 654.626 248.765 654.503 248.982C654.017 249.807 653.365 250.523 652.596 251.145C648.82 254.227 642.151 255.161 637.947 255.949C632.228 257.02 627.987 259.407 623.928 263.51C618.941 268.553 614.345 273.667 606.915 274.76C605.865 274.912 604.806 274.97 603.77 274.912C603.458 274.905 603.146 274.883 602.835 274.847C601.777 274.746 600.74 274.536 599.739 274.225C595.071 272.806 591.215 269.291 589.91 264.219C589.651 263.204 588.078 263.638 588.339 264.651Z" fill="#FFFDFF"/>
<path d="M634.652 220.332C626.213 215.156 616.923 211.275 607.177 209.382C597.698 207.541 586.543 207.919 579.653 215.627C565.616 231.337 577.773 258.94 596.254 264.797C597.25 265.112 596.824 266.685 595.82 266.366C576.806 260.34 564.56 233.385 577.019 216.311C590.464 197.887 620.178 209.543 635.476 218.927C636.368 219.474 635.55 220.883 634.652 220.332Z" fill="#ACC6FC"/>
<path d="M610.334 213.043C602.094 211.107 593.418 211.443 585.445 214.382C577.622 217.265 569.637 222.577 568.111 231.361C566.722 239.363 570.392 247.985 574.639 254.591C579.68 262.436 586.957 264.778 595.752 266.102C596.441 266.206 596.148 267.252 595.462 267.149C586.525 265.802 579.21 263.438 574.018 255.62C569.417 248.691 565.564 239.535 567.062 231.073C570.289 212.848 595.771 208.507 610.622 211.997C611.304 212.157 611.016 213.204 610.334 213.043Z" fill="#ACC6FC"/>
<path d="M582.097 262.553C582.336 263.037 582.598 263.515 582.873 263.978C585.968 264.962 589.244 265.44 592.586 265.317C597.631 265.136 602.626 263.66 606.974 261.1C612.454 257.858 615.774 252.396 620.899 248.765C627.06 244.387 633.823 243.447 641.188 243.129C646.269 242.904 651.489 242.428 655.605 239.106C656.7 238.216 657.591 237.218 658.252 236.125C658.65 235.467 658.969 234.773 659.194 234.057C659.745 232.378 659.818 230.562 659.383 228.659C659.325 228.385 659.252 228.11 659.165 227.834C659.136 227.725 659.1 227.624 659.064 227.516C659.064 227.501 659.057 227.487 659.049 227.465C658.89 226.958 658.709 226.438 658.506 225.909C657.527 223.522 655.991 221.54 654.077 219.984C657.165 223.854 659.514 229.852 658.267 233.701C658.253 233.744 658.238 233.788 658.224 233.824C658.224 233.831 658.224 233.831 658.217 233.831C658.195 233.918 658.166 233.998 658.13 234.077C658.13 234.077 658.13 234.077 658.13 234.084C656.02 239.777 649.134 241.492 643.748 241.911C634.724 242.598 626.786 242.823 619.299 248.603C615.297 251.693 612.499 256.004 608.346 258.92C603.903 262.039 598.575 263.891 593.154 264.194C589.324 264.412 585.577 263.819 582.097 262.553Z" fill="#FFFDFF"/>
<path d="M592.833 273.167C593.718 273.579 594.631 273.926 595.559 274.202C596.088 274.527 596.639 274.817 597.204 275.077C599.393 275.359 601.503 275.351 603.772 274.91C604.751 274.729 605.757 274.461 606.816 274.1C610.905 272.718 614.493 270.931 617.733 268.058C620.965 265.193 623.677 261.807 626.779 258.805C627.83 257.792 628.889 256.88 629.976 256.07C629.983 256.07 629.991 256.063 629.991 256.063C632.796 253.986 635.819 252.62 639.451 252.098L639.458 252.091C639.465 252.084 639.473 252.084 639.48 252.091H639.487C639.979 252.011 640.48 251.953 640.994 251.917C644.408 251.657 648.997 252.294 652.599 251.143C653.563 250.84 654.462 250.405 655.245 249.798C655.528 249.573 655.796 249.327 656.043 249.06C657.819 247.157 658.746 244.14 659.146 241.101C659.153 241.094 659.153 241.087 659.153 241.087C659.479 238.599 659.443 236.095 659.225 234.177C659.145 233.49 658.058 233.483 658.138 234.177C658.428 236.739 658.116 239.495 657.666 242.013C657.499 242.961 657.289 243.836 657.021 244.632C656.528 246.116 655.847 247.345 654.853 248.293C653.65 249.444 651.997 250.174 649.692 250.449C645.111 250.998 640.377 250.326 635.905 251.658C632.983 252.526 630.403 254.183 628.098 256.136C625.778 258.097 623.72 260.361 621.625 262.597C621.618 262.611 621.603 262.626 621.582 262.64C619.154 265.244 616.689 267.798 613.739 269.737C613.725 269.759 613.717 269.766 613.703 269.766C612.601 270.504 611.427 271.148 610.166 271.683C606.614 273.188 603.272 274.194 599.742 274.222C598.09 274.251 596.401 274.056 594.625 273.6C594.582 273.593 594.538 273.586 594.495 273.571C593.949 273.426 593.391 273.296 592.833 273.167Z" fill="#FFFDFF"/>
<path d="M655.128 270.551C655.128 272.507 656.716 274.093 658.676 274.093C660.636 274.093 662.224 272.507 662.224 270.551C662.224 268.596 660.636 267.01 658.676 267.01C656.716 267.01 655.128 268.596 655.128 270.551Z" fill="#FFFDFF"/>
<path d="M660.566 325.394C661.584 331.203 656.704 335.51 653.062 339.358C650.358 342.214 647.541 344.965 644.619 347.599C642.504 349.506 640.392 351.703 637.425 352.029C631.992 352.624 625.732 348.678 622.534 344.585C618.155 338.98 619.219 331.861 619.067 325.124C619.044 324.076 620.675 324.076 620.699 325.124C620.816 330.359 619.837 337.135 622.532 341.81C625.084 346.236 630.615 350.039 635.815 350.361C641.129 350.689 646.603 343.651 650.09 340.095C653.611 336.504 659.978 331.441 658.993 325.825C658.813 324.801 660.385 324.362 660.566 325.394Z" fill="white"/>
<path d="M435.88 331.971C435.788 332.153 435.69 332.336 435.593 332.519L156.423 360.994L156.204 361.018L60.6892 342.49C60.5611 342.338 60.427 342.186 60.2939 342.035C59.0518 340.625 57.7367 339.191 56.3365 337.726C51.4904 332.665 46.266 327.973 41.2438 323.081C40.7994 322.649 40.355 322.212 39.9106 321.774L291.318 309.754L408.057 304.176L437.281 302.45L441.408 302.207C441.95 312.015 440.69 322.431 435.88 331.971Z" fill="#F6F6F6"/>
<path d="M435.435 332.822C435.131 333.405 434.808 333.988 434.468 334.56C432.793 337.428 430.773 340.199 428.354 342.83C425.359 346.093 421.645 349.034 417.407 351.683C416.872 352.024 416.329 352.352 415.776 352.674L194.567 378.044L159.765 382.037L159.163 370.996L158.712 362.786L158.767 362.78L177.075 360.799L435.435 332.822Z" fill="white"/>
<path d="M181.318 212.333C177.94 205.752 171.376 201.498 161.726 199.603C161.72 199.597 161.714 199.597 161.702 199.597C155.784 198.43 148.709 198.144 140.484 198.751C102.554 201.565 74.6503 209.021 57.5538 220.907C45.8819 229.025 40.9507 244.163 45.5717 257.725L66.7286 319.835L67.4472 321.95L122.48 318.085L135.29 317.186L135.552 317.168L135.716 316.968C135.722 316.956 135.771 316.901 135.856 316.798C137.445 314.89 151.93 297.292 164.483 276.503C182.341 246.946 188.004 225.356 181.318 212.333ZM134.95 315.99L91.3334 319.058L71.2904 320.462H71.2844L68.3009 320.675L68.0026 319.793L46.7236 257.332C42.2789 244.285 47.0219 229.713 58.2554 221.905C70.8761 213.124 89.5068 206.786 113.824 202.976C113.867 202.97 113.915 202.964 113.971 202.952C122.189 201.669 131.067 200.679 140.577 199.968C143.371 199.761 146.033 199.658 148.559 199.658C165.083 199.658 175.719 204.095 180.237 212.893C195.34 242.322 138.463 311.754 134.95 315.99Z" fill="black"/>
<path d="M71.5736 321.312L49.8482 257.528C45.3144 244.217 50.0474 229.442 61.6052 221.405C75.0355 212.066 99.5363 202.673 144.228 199.361C243.671 191.99 138.952 316.579 138.952 316.579L71.5736 321.312Z" fill="black"/>
<path d="M201.65 168.027L208.714 162.869L217.745 158.615L245.506 168.027L257.361 293.274L226.725 300.962L205.604 237.46L201.65 168.027Z" fill="#0056EC"/>
<path d="M283.615 327.864L191.521 325.655C191.521 323.185 193.387 321.111 195.848 320.845L290.96 310.596L283.615 327.864Z" fill="#DDDDDD"/>
<path d="M319.754 242.003C319.595 240.861 318.942 239.857 318.303 238.897C309.338 225.426 299.916 212.257 290.013 199.455C284.003 191.685 277.713 183.95 269.724 178.225C261.458 172.302 245.592 166.583 235.874 164.244C245.6 177.149 243.793 180.79 244.687 186.951C249.899 222.88 246.69 257.948 247.247 294.163C247.331 299.663 247.572 305.617 251.031 309.899C251.691 310.716 252.494 311.472 253.496 311.787C254.29 312.036 255.142 311.988 255.972 311.938C267.741 311.227 279.51 310.516 291.28 309.805C287.457 287.246 283.634 264.687 279.811 242.128C288.99 253.497 298.17 264.864 307.35 276.233C311.232 266.084 315.115 255.934 318.997 245.784C319.46 244.57 319.934 243.29 319.754 242.003Z" fill="#D5E2FD"/>
<path d="M277.107 239.399L278.024 310.596L291.317 309.755L279.999 243.942L277.107 239.399Z" fill="#ACC6FC"/>
<path d="M286.568 305.075C286.586 305.859 285.984 306.522 285.332 306.953C284.133 307.737 282.69 308.035 281.272 308.229C274.848 309.098 268.182 308.077 262.313 305.336C264.7 308.545 267.08 311.747 269.467 314.956C269.783 315.381 270.118 315.892 269.978 316.402C269.869 316.816 269.485 317.082 269.125 317.307C268.638 317.605 268.127 317.872 267.609 318.109C264.857 319.385 261.74 319.871 258.733 319.471C252.315 318.614 246.891 313.947 240.467 313.097C237.222 312.659 233.935 313.236 230.659 313.425C227.383 313.608 223.895 313.34 221.216 311.456C220.57 311.007 219.968 310.447 219.676 309.718C218.927 307.883 220.345 305.95 221.496 304.334C221.855 303.83 222.19 303.313 222.507 302.785C224.169 300.051 225.301 297.006 225.831 293.852C229.368 293.64 233.856 292.449 237.271 291.531C242.245 290.2 247.596 288.152 252.327 290.175C253.429 290.649 254.434 291.324 255.432 291.992C263.7 297.54 272.722 303.094 282.69 303.088C284.315 303.088 286.538 303.453 286.568 305.075Z" fill="#F8A17A"/>
<path d="M267.609 318.11C264.857 319.386 261.74 319.872 258.733 319.472C252.315 318.615 246.891 313.948 240.467 313.098C237.222 312.66 233.935 313.237 230.659 313.426C227.383 313.609 223.895 313.341 221.216 311.457C220.57 311.008 219.968 310.448 219.676 309.719C218.927 307.884 220.345 305.951 221.496 304.335C221.855 303.831 222.19 303.314 222.507 302.786C224.845 304.463 229.734 306.517 239.055 305.368C253.819 303.545 250.775 312.052 261.278 315.09C264.657 316.068 266.568 317.125 267.609 318.11Z" fill="#E5785C"/>
<path d="M435.879 331.971C435.788 332.153 435.69 332.336 435.593 332.519C435.544 332.622 435.49 332.72 435.435 332.823C435.131 333.406 434.808 333.989 434.467 334.561L177.076 360.799L158.762 362.665L158.768 362.781L159.163 370.998L159.699 382.173L194.567 378.046L417.408 351.685C416.872 352.026 416.33 352.354 415.776 352.676C414.558 353.399 413.298 354.099 412.001 354.773L158.688 384.737C158.645 384.743 158.597 384.749 158.548 384.749C158.262 384.749 157.981 384.646 157.762 384.457C157.5 384.244 157.348 383.929 157.33 383.588L156.277 361.633C156.265 361.402 156.32 361.183 156.423 360.994C156.606 360.654 156.953 360.405 157.367 360.362L435.879 331.971Z" fill="#0056EC"/>
<path d="M158.688 361.807C158.572 362.385 158.061 362.785 157.495 362.785C157.416 362.785 157.337 362.779 157.258 362.767L156.448 362.609L63.1133 344.185V344.179L61.9443 343.954L61.9383 343.948C61.4089 343.316 60.8604 342.679 60.2949 342.035C60.5321 341.573 61.0556 341.299 61.604 341.409L157.727 360.381C158.39 360.514 158.816 361.151 158.688 361.807Z" fill="#0056EC"/>
<path d="M159.742 383.781C159.62 384.352 159.114 384.747 158.549 384.747C158.47 384.747 158.385 384.735 158.3 384.723L77.6404 367.939C77.2201 367.125 76.7997 366.322 76.3744 365.52C76.3073 365.398 76.2463 365.278 76.1792 365.156L157.216 382.013L158.799 382.341C159.456 382.481 159.875 383.124 159.742 383.781Z" fill="#0056EC"/>
<path d="M123.528 319.253C123.546 319.921 123.022 320.487 122.347 320.505L41.243 323.081C40.4393 322.303 39.6476 321.52 38.856 320.723L66.7285 319.836L68.0006 319.793L71.0262 319.702L91.3313 319.058L113.882 318.341L122.272 318.073C122.346 318.073 122.413 318.073 122.48 318.085C123.053 318.165 123.504 318.651 123.528 319.253Z" fill="#0056EC"/>
<path d="M279.128 328.086L277.995 327.641L285.697 308.127L319.145 228.719C321.064 224.173 325.295 221.132 330.189 220.782C346.406 219.646 387.726 217.076 421.101 217.718C432.999 217.943 442.922 218.566 450.593 219.57C453.52 219.955 456.139 221.278 458.17 223.398C461.889 227.256 462.892 232.925 460.722 237.839L432.782 301.217L431.668 300.728L459.608 237.349C461.577 232.887 460.668 227.741 457.291 224.238C455.453 222.319 453.083 221.121 450.435 220.774C442.809 219.776 432.931 219.156 421.077 218.932C387.756 218.285 346.475 220.858 330.274 221.992C325.841 222.309 322.005 225.067 320.266 229.189L286.823 308.583L279.128 328.086Z" fill="#2863FD"/>
<path d="M281.615 244.235C278.752 238.581 274.962 233.414 272.686 227.47C272.271 226.385 270.505 226.855 270.925 227.954C273.26 234.055 277.1 239.354 280.038 245.155C280.569 246.202 282.146 245.28 281.615 244.235Z" fill="white"/>
<path d="M256.572 300.128C260.396 308.617 273.339 310.055 281.269 309.14C282.423 309.007 282.437 307.182 281.269 307.317C273.967 308.16 261.707 307.108 258.149 299.208C257.668 298.14 256.093 299.066 256.572 300.128Z" fill="white"/>
<path d="M226.725 292.926C225.734 276.345 224.168 259.797 222.032 243.324C220.301 229.979 216.845 217.726 213.588 204.646C211.961 198.119 209.969 191.868 207.377 185.657C204.921 179.77 203.185 172.085 207.471 163.778C200.945 168.456 194.37 172.039 186.887 174.957C180.859 177.308 174.601 179.049 168.629 181.538C165.161 182.983 161.758 184.706 158.925 187.171C155.72 189.959 153.373 193.58 151.173 197.21C148.687 201.314 146.331 205.501 144.308 209.851C141.063 216.83 138.7 224.177 136.001 231.383C131.178 244.257 125.267 256.703 118.802 268.837C114.721 276.495 110.337 284.267 109.191 292.864C108.045 301.462 110.973 311.248 118.528 315.535C121.976 317.492 126.013 318.126 129.968 318.421C158.869 320.578 186.268 316.616 218.928 312.382C219.824 312.266 218.092 312.72 218.928 312.382C219.887 311.994 220.448 311.013 220.902 310.085C223.541 304.707 226.34 298.903 226.725 292.926Z" fill="#D5E2FD"/>
<path d="M236.343 184.08C232.328 186.968 226.311 187.606 221.905 186.313C216.275 184.66 210.461 183.12 207.334 177.756C204.461 172.84 206.78 166.703 208.15 161.179C209.909 154.123 209.976 146.655 208.357 139.57L225.185 142.809L230.896 143.908C230.858 143.901 231.254 150.184 231.341 150.765C231.695 153.109 232.252 155.421 233.005 157.668C234.498 162.126 237.284 165.858 238.955 170.209C240.318 173.761 241.158 178.502 238.711 181.779C238.051 182.664 237.247 183.43 236.343 184.08Z" fill="#F8A17A"/>
<path d="M237.326 166.74C221.576 165.585 215.573 154.653 213.588 149.403C214.891 150.442 216.327 151.305 217.881 151.944C222.203 153.724 227.435 154.528 231.672 152.608C232.47 157.287 233.905 160.822 236.268 164.942C236.613 165.542 236.973 166.138 237.326 166.74Z" fill="#E5785C"/>
<path d="M272.629 228.316C273.889 226.529 275.107 224.715 276.284 222.872C276.917 221.88 275.337 220.964 274.707 221.952C273.53 223.795 272.311 225.609 271.051 227.396C270.374 228.357 271.956 229.269 272.629 228.316Z" fill="white"/>
<path d="M171.626 339.425H144.838L139.251 303.198H177.811L171.626 339.425Z" fill="#0056EC"/>
<path d="M171.625 339.425C171.625 341.905 165.613 343.915 158.196 343.915C150.78 343.915 144.767 341.906 144.767 339.425C144.767 336.945 150.779 334.935 158.196 334.935C165.613 334.935 171.625 336.945 171.625 339.425Z" fill="#0056EC"/>
<path d="M158.531 307.688C169.18 307.688 177.812 305.678 177.812 303.198C177.812 300.718 169.18 298.708 158.531 298.708C147.883 298.708 139.251 300.718 139.251 303.198C139.251 305.678 147.883 307.688 158.531 307.688Z" fill="white"/>
<path d="M158.531 306.933C167.389 306.933 174.569 305.261 174.569 303.198C174.569 301.136 167.389 299.463 158.531 299.463C149.674 299.463 142.494 301.136 142.494 303.198C142.494 305.261 149.674 306.933 158.531 306.933Z" fill="#002B58"/>
<path d="M141.778 307.042C138.919 307.443 136.059 307.844 133.199 308.245C130.73 308.591 127.158 308.447 125.453 310.595C121.775 315.233 129.192 320.312 131.955 323.203C136.707 328.175 141.361 333.325 147.379 336.802C149.417 337.98 151.259 334.83 149.222 333.654C144.449 330.896 140.65 327.012 136.87 323.064C134.795 320.897 132.724 318.727 130.653 316.558C129.373 315.218 126.802 313.425 129.563 312.405C131.694 311.618 134.602 311.698 136.848 311.383C138.816 311.108 140.782 310.832 142.749 310.555C145.068 310.233 144.081 306.719 141.778 307.042Z" fill="#0056EC"/>
<path d="M188.957 103.213C184.114 103.977 179.783 107.404 177.933 111.936C176.084 116.467 176.782 121.94 179.711 125.864C181.81 128.677 184.863 130.619 187.251 133.193C189.74 135.874 191.478 139.244 192.216 142.825C192.741 145.369 192.795 148.079 194.031 150.364C196.233 154.433 202.313 155.731 205.991 152.92C208.796 150.775 209.868 147.086 210.473 143.611C211.998 134.848 211.598 125.758 209.308 117.163C208.136 112.762 206.354 108.313 202.936 105.296C199.519 102.278 194.107 101.128 190.325 103.676L188.957 103.213Z" fill="#ACC6FC"/>
<path d="M188.334 103.647C183.258 102.617 177.737 101.762 173.216 104.882C172.255 105.545 173.167 107.126 174.137 106.457C178.256 103.615 183.244 104.471 187.849 105.405C188.997 105.637 189.487 103.88 188.334 103.647Z" fill="#ACC6FC"/>
<path d="M184.539 130.675C189.933 135.186 187.291 142.817 188.192 148.827C188.897 153.531 192.399 159.225 197.136 160.829C201.78 162.401 205.529 158.276 207.082 154.34C209.105 149.216 208.474 143.501 205.748 138.773C205.161 137.756 203.583 138.673 204.171 139.693C206.822 144.29 207.332 150.119 204.839 154.921C203.277 157.931 200.158 160.613 196.647 158.609C194.575 157.428 192.794 155.274 191.627 153.252C187.387 145.909 193.083 135.45 185.831 129.387C184.935 128.639 183.636 129.921 184.539 130.675Z" fill="#ACC6FC"/>
<path d="M255.749 117.804C255.56 119.616 255.287 121.414 254.969 123.195C253.447 131.721 250.117 139.942 245.094 147.009C243.53 149.203 241.879 151.366 239.816 153.105C234.677 157.437 222.823 158.44 216.607 155.876C211.03 153.579 206.86 148.614 204.437 143.096C202.008 137.578 201.149 131.514 200.675 125.504C195.724 125.68 191.299 120.63 192.132 115.764C192.966 110.896 196.425 108.095 203.353 110.173C203.578 110.173 203.803 110.173 204.028 110.161C217.703 109.954 229.101 101.993 242.166 99.3683C244.461 98.9067 251.219 96.828 252.912 98.7239C253.63 99.5261 254.038 100.979 254.397 101.975C255.225 104.254 255.669 106.648 255.882 109.055C256.138 111.965 256.047 114.894 255.749 117.804Z" fill="#F8A17A"/>
<path d="M200.592 126.176C201.515 137.492 204.454 151.789 216.094 156.561C221.03 158.585 225.899 159.236 230.995 157.524C235.367 156.054 240.275 154.013 243.345 150.445C243.916 149.781 242.951 148.809 242.376 149.478C239.554 152.759 234.995 154.699 230.994 156.083C225.813 157.876 220.816 157.195 215.863 154.99C205.425 150.345 202.799 136.443 201.962 126.176C201.89 125.305 200.52 125.297 200.592 126.176Z" fill="white"/>
<path d="M255.749 117.804C253.356 116.443 249.88 114.608 245.143 112.432C234.494 107.54 227.182 121.092 214.397 117.294C208.248 115.465 205.361 112.621 204.028 110.159C217.703 109.953 229.101 101.992 242.166 99.367C244.46 98.9055 251.219 96.8268 252.912 98.7227C253.63 99.5249 254.038 100.977 254.397 101.974C255.225 104.253 255.669 106.647 255.882 109.054C256.138 111.965 256.047 114.893 255.749 117.804Z" fill="#E5785C"/>
<path d="M180.282 246.981C180.282 246.981 172.133 279.288 183.6 281.314L170.686 278.936C170.686 278.936 169.848 279.896 170.686 276.25C171.525 272.604 178.487 247.082 180.282 246.981Z" fill="#ACC6FC"/>
<path d="M179.553 244.016C175.085 255.182 171.398 266.619 168.503 278.289C168.381 278.78 168.659 279.26 169.141 279.41C184.518 284.221 200.693 284.899 216.411 288.078C218.547 288.509 225.184 289.086 225.665 291.46C226.001 293.122 225.274 295.423 224.936 297.036C223.745 302.718 221.696 308.624 217.709 312.969C216.916 313.833 218.204 315.126 219 314.257C223.129 309.757 225.35 303.736 226.625 297.85C227.312 294.681 228.93 290.082 225.211 288.401C221.251 286.611 216.203 286.13 211.947 285.399C207.344 284.607 202.716 283.977 198.091 283.332C188.491 281.993 178.901 280.552 169.627 277.651C169.839 278.024 170.053 278.398 170.265 278.772C173.159 267.101 176.846 255.664 181.314 244.498C181.75 243.411 179.984 242.938 179.553 244.016Z" fill="white"/>
<path d="M169.259 277.647C164.206 278.407 159.381 279.845 154.718 281.924C153.647 282.402 154.575 283.973 155.64 283.498C160.159 281.484 164.854 280.14 169.746 279.405C170.904 279.23 170.411 277.474 169.259 277.647Z" fill="white"/>
<path d="M173.825 239.922C174.881 240.76 175.645 241.872 176.65 242.762C177.606 243.609 178.712 244.246 179.822 244.868C180.848 245.442 181.771 243.869 180.744 243.294C179.661 242.687 178.564 242.081 177.664 241.215C176.788 240.372 176.076 239.393 175.117 238.633C174.205 237.91 172.904 239.192 173.825 239.922Z" fill="white"/>
<path d="M191.521 325.655L283.616 327.864V330.282L194.554 327.303C193.431 327.266 192.382 326.738 191.683 325.86L191.521 325.655Z" fill="#002B58"/>
<path d="M427.679 324.017C427.679 325.389 426.583 326.513 425.207 326.549L283.616 330.282V327.864L427.679 324.017Z" fill="#002B58"/>
<path d="M190.772 107.114C194.181 104.652 198.991 105.947 202.693 107.94C206.395 109.934 210.013 112.609 214.218 112.732C221.586 112.946 227.006 105.384 234.265 104.104C238.692 103.324 243.14 104.989 247.341 106.585C251.542 108.182 256.046 109.761 260.439 108.811C264.832 107.861 268.735 103.285 267.256 99.0494C266.369 96.5101 263.789 94.5592 263.798 91.8701C263.809 88.5077 267.615 86.7356 270.4 84.8426C273.663 82.624 276.224 78.6553 275.188 74.8523C274.731 73.1781 273.64 71.7517 272.474 70.4651C267.005 64.4275 258.131 60.4358 250.606 63.5725C244.887 65.9559 240.487 72.1053 234.297 71.8186C230.876 71.6598 227.921 69.4901 224.686 68.3673C219.47 66.5572 213.537 67.5861 208.733 70.3052C203.93 73.0233 200.157 77.2867 197.195 81.9367C195.969 83.8607 194.828 86.0383 195.097 88.3019C195.389 90.7583 197.31 93.1637 196.395 95.4632C195.196 98.478 190.675 98.0085 188.073 99.9514C185.15 102.134 186.124 107.61 189.621 108.656C191.668 109.268 193.841 108.519 195.964 108.279C198.679 107.974 201.485 108.535 203.872 109.864L190.772 107.114Z" fill="#ACC6FC"/>
<path d="M200.091 106.548C203.194 106.673 205.762 110.73 208.065 112.503C210.247 114.183 212.718 115.507 215.459 115.966C220.791 116.861 224.909 113.67 228.932 110.683C231.257 108.956 233.719 107.241 236.635 106.736C240.201 106.119 243.82 107.233 247.259 108.051C252.062 109.194 258.222 110.358 261.907 106.173C262.68 105.295 261.393 104 260.616 104.884C256.073 110.044 247.504 105.86 241.919 105.024C236.844 104.265 232.789 105.632 228.699 108.6C223.673 112.246 218.902 116.187 212.408 113.099C209.638 111.783 207.477 109.634 205.329 107.507C203.795 105.988 202.315 104.814 200.091 104.724C198.916 104.678 198.918 106.501 200.091 106.548Z" fill="#F1F8FF"/>
<path d="M247.578 91.4676C248.753 91.4676 248.755 89.6445 247.578 89.6445C246.403 89.6445 246.401 91.4676 247.578 91.4676Z" fill="#241F3F"/>
<path d="M187.556 104.383C185.514 103.363 184.531 100.658 186.301 98.8558C187.284 97.8549 188.933 97.715 190.124 97.0467C191.75 96.1347 192.654 94.6603 192.975 92.8492C193.381 90.5637 192.66 88.3141 192.684 86.0275C192.72 82.5992 194.101 79.3158 196.323 76.7185C203.506 68.3206 218.527 65.4916 227.37 72.7448C228.271 73.484 229.571 72.2014 228.662 71.4562C218.821 63.3849 202.108 66.3477 194.431 76.1681C192.583 78.5316 191.296 81.3775 190.956 84.3693C190.759 86.0895 190.994 87.7167 191.162 89.4259C191.484 92.6974 191.001 94.6932 187.686 96.0608C183.246 97.8928 181.689 103.488 186.634 105.958C187.682 106.481 188.608 104.908 187.556 104.383Z" fill="#ACC6FC"/>
<path d="M202.495 104.745C204.433 101.909 207.79 100.408 211.196 101.185C213.38 101.684 215.181 102.821 217.499 102.663C222.745 102.303 225.532 97.2873 230.274 95.8139C233.311 94.8699 236.713 95.1057 239.564 96.5311C241.651 97.575 243.272 99.2982 245.674 99.6368C250.455 100.311 255.171 96.8658 258.849 94.3245C259.569 93.8271 258.885 92.6413 258.157 93.1438C255.445 95.0178 252.64 97.0166 249.415 97.8947C247.084 98.53 245.113 98.3452 243.044 97.1095C241.829 96.3843 240.736 95.5252 239.422 94.9658C235.552 93.3176 230.887 93.5623 227.227 95.6481C224.887 96.9817 223.125 99.1244 220.695 100.325C217.05 102.126 214.649 100.482 211.147 99.7847C207.252 99.0085 203.496 100.856 201.311 104.054C200.814 104.784 202.001 105.47 202.495 104.745Z" fill="#F1F8FF"/>
<path d="M209.4 93.5773C213.116 94.2715 217.12 94.2755 220.525 92.4235C225.363 89.7923 227.075 84.2663 233.683 85.9365C238.016 87.0313 241.308 91.1619 246.058 90.4406C250.402 89.7803 253.379 86.1892 256.196 83.1684C256.796 82.5251 255.829 81.5562 255.227 82.2015C251.719 85.9624 247.334 91.0839 241.627 88.3569C238.154 86.6966 235.214 84.2443 231.162 84.2063C227.624 84.1734 225.478 86.1952 223.147 88.5517C219.409 92.3306 214.905 93.2206 209.764 92.2597C208.903 92.0978 208.533 93.4154 209.4 93.5773Z" fill="#F1F8FF"/>
<path d="M196.281 123.877C200.407 123.877 203.751 118.806 203.751 112.551C203.751 106.296 200.407 101.225 196.281 101.225C192.155 101.225 188.811 106.296 188.811 112.551C188.811 118.806 192.155 123.877 196.281 123.877Z" fill="#0056EC"/>
<path d="M200.428 112.551C200.428 116.023 198.572 118.839 196.281 118.839C193.99 118.839 192.133 116.024 192.133 112.551C192.133 109.079 193.99 106.263 196.281 106.263C198.571 106.263 200.428 109.079 200.428 112.551Z" fill="#002B58"/>
<path d="M199.675 103.292C199.578 88.8655 202.815 73.519 211.94 61.9744C215.427 57.5641 221.88 49.9623 228.023 54.0988C232.72 57.2614 234.955 63.8883 236.386 69.0757C236.697 70.2055 238.461 69.726 238.147 68.5913C236.618 63.0492 234.235 56.4513 229.436 52.8811C223.618 48.5528 217.795 53.014 213.572 57.3553C201.887 69.3684 197.737 86.9945 197.847 103.293C197.856 104.465 199.683 104.467 199.675 103.292Z" fill="#0056EC"/>
<path d="M263.578 90.13C264.767 82.5591 277.382 84.9596 278.108 76.4647C278.683 69.7359 272.151 63.6494 266.555 61.1202C260.092 58.1983 252.368 58.6608 246.294 62.3438C242.687 64.5315 240.012 67.9239 236.114 69.681C231.619 71.7078 226.61 71.8277 221.953 70.3263C220.832 69.9647 220.351 71.7248 221.467 72.0844C227.81 74.1282 234.859 73.2461 240.325 69.3453C243.243 67.2626 245.605 64.5934 248.885 63.0141C252.791 61.1341 257.33 60.5338 261.582 61.4009C265.254 62.15 268.685 63.9631 271.399 66.5373C274.295 69.2824 277.932 74.3669 275.647 78.4815C272.588 83.9916 262.977 82.2535 261.816 89.6445C261.636 90.7923 263.396 91.2868 263.578 90.13Z" fill="#ACC6FC"/>
<path d="M465.219 239.69L453.316 266.422L440.677 294.824L437.28 302.45L427.679 324.016L283.616 327.863L291.317 309.754L324.761 231.134C326.581 226.862 330.647 223.969 335.287 223.641C351.926 222.486 392.822 219.971 426.144 220.608C437.165 220.815 447.362 221.373 455.569 222.437C458.468 222.814 460.945 224.144 462.784 226.046C466.145 229.499 467.387 234.829 465.219 239.69Z" fill="#ACC6FC"/>
<path d="M395.159 270.428C393.271 277.187 386.242 283.326 379.46 284.139C372.678 284.952 368.711 280.131 370.599 273.371C371.514 270.096 373.441 267.114 375.999 264.874C377.44 263.613 379.052 262.393 380.879 261.757C382.317 261.256 385.464 261.047 385.333 263.257C385.31 263.641 385.301 264.034 385.415 264.401C386.01 266.316 388.349 265.401 389.402 264.462C390.312 263.65 391.092 262.5 392.379 262.311C393.59 262.133 394.531 262.909 395.024 263.958C395.115 264.178 395.197 264.407 395.268 264.642C395.768 266.291 395.765 268.26 395.159 270.428Z" fill="#0056EC"/>
<path d="M427.517 15.8469H333.786C328.15 15.8469 323.581 20.407 323.581 26.032V74.8386C323.581 80.4635 328.149 85.0236 333.786 85.0236H338.604V103.233L363.549 85.0236H427.517C433.153 85.0236 437.723 80.4635 437.723 74.8386V26.032C437.723 20.407 433.154 15.8469 427.517 15.8469Z" fill="#2863FD"/>
<path d="M395.007 53.5504H343.43C342.075 53.5504 340.967 52.4436 340.967 51.092V49.9742C340.967 48.6217 342.076 47.5159 343.43 47.5159H395.007C396.362 47.5159 397.47 48.6227 397.47 49.9742V51.092C397.471 52.4436 396.362 53.5504 395.007 53.5504Z" fill="white"/>
<path d="M417.873 53.5504H404.281C402.926 53.5504 401.818 52.4436 401.818 51.092V49.9742C401.818 48.6217 402.927 47.5159 404.281 47.5159H417.873C419.229 47.5159 420.337 48.6227 420.337 49.9742V51.092C420.338 52.4436 419.229 53.5504 417.873 53.5504Z" fill="white"/>
<path d="M366.297 33.8086H417.873C419.228 33.8086 420.336 34.9154 420.336 36.267V37.3848C420.336 38.7373 419.227 39.8431 417.873 39.8431H366.297C364.941 39.8431 363.833 38.7363 363.833 37.3848V36.267C363.833 34.9154 364.941 33.8086 366.297 33.8086Z" fill="white"/>
<path d="M343.43 33.8086H357.023C358.378 33.8086 359.486 34.9154 359.486 36.267V37.3848C359.486 38.7373 358.377 39.8431 357.023 39.8431H343.43C342.075 39.8431 340.967 38.7363 340.967 37.3848V36.267C340.967 34.9154 342.075 33.8086 343.43 33.8086Z" fill="white"/>
<path d="M378.189 66.0809H343.43C342.075 66.0809 340.967 64.9741 340.967 63.6225V62.5047C340.967 61.1522 342.076 60.0464 343.43 60.0464H378.189C379.544 60.0464 380.652 61.1532 380.652 62.5047V63.6225C380.652 64.9741 379.544 66.0809 378.189 66.0809Z" fill="white"/>
</g>
<defs>
<clipPath id="clip0">
<rect width="804" height="542" fill="white" transform="translate(0 0.977783)"/>
</clipPath>
</defs>
</svg>
