<?xml version="1.0" encoding="utf-8"?>
<!-- Generator: Adobe Illustrator 22.0.1, SVG Export Plug-In . SVG Version: 6.00 Build 0)  -->
<svg version="1.1" id="Capa_1" xmlns="http://www.w3.org/2000/svg" xmlns:xlink="http://www.w3.org/1999/xlink" x="0px" y="0px"
	 viewBox="0 0 16 16" enable-background="new 0 0 16 16" xml:space="preserve">
<g>
	<path fill="#FFFFFF" d="M8,0C5.827,0,5.555,0.01,4.702,0.048C3.85,0.087,3.269,0.222,2.76,0.42
		C2.234,0.625,1.787,0.898,1.342,1.342S0.625,2.234,0.42,2.76C0.222,3.269,0.087,3.85,0.048,4.702C0.01,5.555,0,5.827,0,8
		s0.01,2.445,0.048,3.298c0.039,0.851,0.174,1.433,0.372,1.942c0.205,0.526,0.478,0.972,0.922,1.417s0.891,0.718,1.417,0.922
		c0.509,0.198,1.09,0.333,1.942,0.372C5.555,15.99,5.827,16,8,16s2.445-0.01,3.298-0.048c0.851-0.039,1.433-0.174,1.942-0.372
		c0.526-0.205,0.972-0.478,1.417-0.922s0.718-0.891,0.922-1.417c0.198-0.509,0.333-1.09,0.372-1.942C15.99,10.445,16,10.173,16,8
		s-0.01-2.445-0.048-3.298C15.913,3.85,15.778,3.269,15.58,2.76c-0.205-0.526-0.478-0.972-0.922-1.417s-0.891-0.718-1.417-0.922
		c-0.509-0.198-1.09-0.333-1.942-0.372C10.445,0.01,10.173,0,8,0L8,0L8,0z M8,1.442c2.136,0,2.389,0.008,3.233,0.046
		c0.78,0.035,1.203,0.166,1.486,0.275c0.374,0.145,0.64,0.318,0.92,0.598s0.454,0.546,0.598,0.92c0.11,0.282,0.24,0.706,0.275,1.486
		C14.55,5.611,14.558,5.864,14.558,8s-0.008,2.389-0.046,3.233c-0.035,0.78-0.166,1.203-0.275,1.486
		c-0.145,0.374-0.318,0.64-0.598,0.92s-0.546,0.454-0.92,0.598c-0.282,0.11-0.706,0.24-1.486,0.275
		C10.39,14.55,10.136,14.558,8,14.558s-2.39-0.008-3.233-0.046c-0.78-0.035-1.203-0.166-1.486-0.275
		c-0.374-0.145-0.64-0.318-0.92-0.598s-0.454-0.546-0.598-0.92c-0.11-0.282-0.24-0.706-0.275-1.486
		C1.45,10.389,1.442,10.136,1.442,8S1.45,5.611,1.488,4.767c0.035-0.78,0.166-1.203,0.275-1.486c0.145-0.374,0.318-0.64,0.598-0.92
		s0.546-0.454,0.92-0.598c0.282-0.11,0.706-0.24,1.486-0.275C5.611,1.45,5.864,1.442,8,1.442"/>
	<path fill="#FFFFFF" d="M8,10.666c-1.473,0-2.666-1.194-2.666-2.666S6.527,5.334,8,5.334S10.666,6.527,10.666,8
		S9.473,10.666,8,10.666L8,10.666z M8,3.892C5.731,3.892,3.892,5.731,3.892,8S5.731,12.108,8,12.108S12.108,10.269,12.108,8
		S10.269,3.892,8,3.892L8,3.892z"/>
	<path fill="#FFFFFF" d="M13.23,3.73c0,0.53-0.43,0.96-0.96,0.96s-0.96-0.43-0.96-0.96s0.43-0.96,0.96-0.96
		C12.801,2.77,13.23,3.199,13.23,3.73L13.23,3.73z"/>
</g>
</svg>
