<?xml version="1.0" encoding="utf-8"?>
<!-- Generator: Adobe Illustrator 22.0.1, SVG Export Plug-In . SVG Version: 6.00 Build 0)  -->
<svg version="1.1" id="Layer_1" xmlns="http://www.w3.org/2000/svg" xmlns:xlink="http://www.w3.org/1999/xlink" x="0px" y="0px"
	 viewBox="0 0 125 20" enable-background="new 0 0 125 20" xml:space="preserve">
<path fill="#002B58" d="M16.504,0.461h-3.833v11.543h0.001c-0.02,1.118-0.476,2.127-1.202,2.86
	c-0.744,0.748-1.776,1.211-2.916,1.211c-1.137,0-2.168-0.465-2.913-1.215c-0.624-0.629-1.049-1.459-1.171-2.386H0.622
	c0.134,1.993,0.992,3.787,2.311,5.116c1.439,1.449,3.427,2.346,5.622,2.346c2.189,0,4.176-0.897,5.614-2.346l0.007-0.007
	c1.438-1.45,2.329-3.451,2.329-5.656h-0.001L16.504,0.461L16.504,0.461z"/>
<path fill="#002B58" d="M28.89,0.049c-2.725,0-5.193,1.114-6.979,2.913c-1.786,1.799-2.892,4.285-2.892,7.031
	c0,2.745,1.106,5.232,2.892,7.031c1.786,1.799,4.254,2.914,6.979,2.914c2.725,0,5.193-1.114,6.979-2.914
	c1.786-1.799,2.892-4.286,2.892-7.031c0-2.746-1.106-5.232-2.892-7.031C34.083,1.163,31.615,0.049,28.89,0.049z M33.139,14.274
	c-1.087,1.094-2.589,1.772-4.249,1.772c-1.659,0-3.163-0.678-4.249-1.772c-1.086-1.095-1.76-2.609-1.76-4.281
	c0-1.672,0.674-3.186,1.76-4.281c1.087-1.094,2.59-1.773,4.249-1.773c1.66,0,3.163,0.678,4.249,1.773
	c1.086,1.095,1.759,2.609,1.759,4.281C34.898,11.665,34.225,13.18,33.139,14.274z"/>
<path fill="#002B58" d="M50.486,0.049c-2.724,0-5.193,1.114-6.979,2.913c-1.786,1.799-2.891,4.285-2.891,7.031
	c0,2.745,1.106,5.232,2.891,7.031c1.786,1.799,4.255,2.914,6.979,2.914c2.725,0,5.193-1.114,6.979-2.914
	c1.786-1.799,2.892-4.286,2.892-7.031c0-2.746-1.106-5.232-2.892-7.031C55.68,1.163,53.212,0.049,50.486,0.049z M54.736,14.274
	c-1.087,1.094-2.59,1.772-4.249,1.772c-1.659,0-3.162-0.678-4.249-1.772c-1.086-1.095-1.759-2.609-1.759-4.281
	c0-1.672,0.673-3.186,1.759-4.281c1.087-1.094,2.59-1.773,4.249-1.773c1.659,0,3.162,0.678,4.249,1.773
	c1.086,1.095,1.759,2.609,1.759,4.281C56.495,11.665,55.822,13.18,54.736,14.274z"/>
<path fill="#002B58" d="M93.214,0.461l-8.73,19.064h4.244l1.714-3.742h6.253l-1.517-3.313h-3.219l2.675-5.84l5.906,12.894h4.244
	L96.051,0.461H93.214z"/>
<path fill="#002B58" d="M124.587,9.158h-9.838v3.318h5.489c-0.301,0.679-0.722,1.292-1.237,1.81c-1.087,1.094-2.59,1.772-4.25,1.772
	c-1.659,0-3.162-0.678-4.248-1.772c-1.087-1.095-1.76-2.609-1.76-4.281c0-1.672,0.673-3.187,1.76-4.281
	c1.086-1.095,2.589-1.772,4.248-1.772c1.66,0,3.164,0.677,4.25,1.772c0.432,0.435,0.798,0.936,1.083,1.488h4.143
	c-0.471-1.623-1.341-3.075-2.496-4.238c-1.786-1.799-4.255-2.913-6.98-2.913s-5.193,1.113-6.979,2.913
	c-1.786,1.799-2.892,4.286-2.892,7.031c0,2.745,1.106,5.232,2.892,7.031c1.786,1.8,4.254,2.913,6.979,2.913s5.194-1.114,6.98-2.913
	c1.786-1.799,2.891-4.285,2.891-7.031C124.622,9.72,124.61,9.438,124.587,9.158z"/>
<path fill="#002B58" d="M72.741,8.767L65.88,0.461h-3.01v19.064h3.862V7.549l5.305,6.422h1.407l5.305-6.422v11.976h3.862V0.461
	h-3.009L72.741,8.767z"/>
</svg>
