<?xml version="1.0" encoding="utf-8"?>
<!-- Generator: Adobe Illustrator 22.0.1, SVG Export Plug-In . SVG Version: 6.00 Build 0)  -->
<svg version="1.1" id="Capa_1" xmlns="http://www.w3.org/2000/svg" xmlns:xlink="http://www.w3.org/1999/xlink" x="0px" y="0px"
	 viewBox="0 0 16.744 16" enable-background="new 0 0 16.744 16" xml:space="preserve">
<g>
	<path id="LinkedIn" fill="#FFFFFF" d="M16.744,9.81V16h-3.589v-5.776c0-1.451-0.519-2.441-1.818-2.441
		c-0.992,0-1.582,0.667-1.842,1.313c-0.094,0.23-0.119,0.552-0.119,0.875V16h-3.59c0,0,0.048-9.782,0-10.796h3.59v1.53
		C9.369,6.746,9.359,6.758,9.353,6.77h0.023V6.734C9.853,6,10.705,4.95,12.611,4.95C14.974,4.95,16.744,6.494,16.744,9.81z M2.031,0
		C0.803,0,0,0.806,0,1.865c0,1.036,0.78,1.866,1.984,1.866h0.024c1.252,0,2.03-0.83,2.03-1.866C4.014,0.806,3.26,0,2.031,0z
		 M0.214,16h3.589V5.204H0.214V16z"/>
</g>
</svg>
