<svg width="122" height="101" viewBox="0 0 122 101" fill="none" xmlns="http://www.w3.org/2000/svg">
<g clip-path="url(#clip0)">
<path d="M79.3231 100.366C102.597 100.366 121.465 81.5559 121.465 58.3522C121.465 35.1485 102.597 16.3381 79.3231 16.3381C56.0487 16.3381 37.1812 35.1485 37.1812 58.3522C37.1812 81.5559 56.0487 100.366 79.3231 100.366Z" fill="#F1F8FF"/>
<path d="M33.7041 47.7567V23.4552H7.11191C3.4401 23.4552 0.463867 26.4224 0.463867 30.0831V69.8493C0.463867 73.51 3.4401 76.4772 7.11191 76.4772H15.9756V89.7329C15.9756 89.7329 15.9067 90.6735 16.4783 90.8608C17.105 91.0671 17.5487 90.5191 17.5487 90.5191L29.2707 76.4772H62.5109C66.1828 76.4772 69.159 73.51 69.159 69.8493V54.3846H40.3511C36.6803 54.3846 33.7041 51.4174 33.7041 47.7567Z" fill="#ACC6FC"/>
<path d="M58.6793 1.36267H95.7512C99.423 1.36267 102.399 4.32987 102.399 7.99055V47.7568C102.399 51.4175 99.423 54.3847 95.7512 54.3847H86.8875V67.6404V71.065L73.5914 54.3847H40.3512C36.6794 54.3847 33.7031 51.4175 33.7031 47.7568V7.99055C33.7041 4.32987 36.6804 1.36267 40.3512 1.36267H45.4991" stroke="#002B58" stroke-width="2" stroke-miterlimit="10" stroke-linecap="round" stroke-linejoin="round"/>
<path d="M51.1836 1.36267H53.2654" stroke="#002B58" stroke-width="2" stroke-miterlimit="10" stroke-linecap="round" stroke-linejoin="round"/>
<path d="M44.7837 19.0364H91.319" stroke="#002B58" stroke-width="2" stroke-miterlimit="10" stroke-linecap="round"/>
<path d="M44.7837 27.8741H91.319" stroke="#002B58" stroke-width="2" stroke-miterlimit="10" stroke-linecap="round"/>
<path d="M44.7837 36.7111H75.8072" stroke="#002B58" stroke-width="2" stroke-miterlimit="10" stroke-linecap="round"/>
</g>
<defs>
<clipPath id="clip0">
<rect width="121" height="100" fill="white" transform="translate(0.463867 0.366333)"/>
</clipPath>
</defs>
</svg>
