<?xml version="1.0" encoding="utf-8"?>
<!-- Generator: Adobe Illustrator 22.0.1, SVG Export Plug-In . SVG Version: 6.00 Build 0)  -->
<svg version="1.1" id="Capa_1" xmlns="http://www.w3.org/2000/svg" xmlns:xlink="http://www.w3.org/1999/xlink" x="0px" y="0px"
	 viewBox="0 0 19.698 16" enable-background="new 0 0 19.698 16" xml:space="preserve">
<g>
	<g>
		<path fill="#FFFFFF" d="M19.698,1.893c-0.725,0.322-1.503,0.539-2.32,0.636c0.834-0.5,1.474-1.293,1.776-2.234
			c-0.783,0.462-1.647,0.799-2.567,0.981C15.85,0.49,14.801,0,13.638,0c-2.231,0-4.041,1.81-4.041,4.04
			c0,0.316,0.036,0.626,0.105,0.921C6.343,4.792,3.366,3.183,1.373,0.738C1.025,1.334,0.826,2.029,0.826,2.77
			c0,1.402,0.714,2.639,1.797,3.362C1.962,6.11,1.338,5.928,0.794,5.625v0.05c0,1.957,1.394,3.59,3.241,3.962
			C3.696,9.729,3.339,9.779,2.97,9.779c-0.261,0-0.514-0.026-0.761-0.075c0.514,1.606,2.006,2.774,3.774,2.806
			c-1.382,1.083-3.125,1.727-5.018,1.727c-0.326,0-0.647-0.02-0.964-0.055C1.79,15.33,3.913,16,6.194,16
			C13.627,16,17.69,9.843,17.69,4.504l-0.014-0.523C18.471,3.414,19.158,2.703,19.698,1.893z"/>
	</g>
</g>
</svg>
