<?xml version="1.0" encoding="utf-8"?>
<!-- Generator: Adobe Illustrator 22.0.1, SVG Export Plug-In . SVG Version: 6.00 Build 0)  -->
<svg version="1.1" id="Capa_1" xmlns="http://www.w3.org/2000/svg" xmlns:xlink="http://www.w3.org/1999/xlink" x="0px" y="0px"
	 viewBox="0 0 22.749 16" enable-background="new 0 0 22.749 16" xml:space="preserve">
<g id="Lozenge">
	<path fill="#FFFFFF" d="M22.522,3.451c0,0-0.222-1.568-0.905-2.258c-0.865-0.906-1.834-0.91-2.279-0.964C16.155,0,11.38,0,11.38,0
		h-0.01c0,0-4.775,0-7.958,0.23c-0.446,0.054-1.414,0.057-2.28,0.964C0.45,1.884,0.228,3.451,0.228,3.451S0,5.293,0,7.134V8.86
		c0,1.841,0.228,3.682,0.228,3.682S0.45,14.109,1.132,14.8c0.866,0.906,2.002,0.878,2.508,0.973C5.46,15.946,11.375,16,11.375,16
		s4.78-0.007,7.963-0.237c0.445-0.053,1.414-0.057,2.279-0.964c0.682-0.691,0.905-2.258,0.905-2.258s0.227-1.841,0.227-3.682V7.134
		C22.749,5.293,22.522,3.451,22.522,3.451z M9.026,10.951L9.025,4.559l6.147,3.207L9.026,10.951z"/>
</g>
</svg>
